<?xml version="1.0" standalone="no"?><!-- Generator: Gravit.io --><svg xmlns="http://www.w3.org/2000/svg" xmlns:xlink="http://www.w3.org/1999/xlink" style="isolation:isolate" viewBox="66 11 20 20" width="20" height="20"><path d=" M 67.333 12.667 C 67.333 12.483 67.483 12.333 67.667 12.333 C 67.851 12.333 68 12.483 68 12.667 C 68 12.851 67.851 13 67.667 13 C 67.483 13 67.333 12.851 67.333 12.667 L 67.333 12.667 L 67.333 12.667 L 67.333 12.667 L 67.333 12.667 L 67.333 12.667 L 67.333 12.667 L 67.333 12.667 L 67.333 12.667 L 67.333 12.667 L 67.333 12.667 L 67.333 12.667 L 67.333 12.667 L 67.333 12.667 L 67.333 12.667 L 67.333 12.667 Z  M 77 25.333 L 78 25.333 L 78 26 L 77 26 L 77 25.333 L 77 25.333 L 77 25.333 L 77 25.333 L 77 25.333 L 77 25.333 Z  M 69.333 12.667 C 69.333 12.483 69.483 12.333 69.667 12.333 C 69.851 12.333 70 12.483 70 12.667 C 70 12.851 69.851 13 69.667 13 C 69.483 13 69.333 12.851 69.333 12.667 L 69.333 12.667 L 69.333 12.667 L 69.333 12.667 L 69.333 12.667 L 69.333 12.667 L 69.333 12.667 L 69.333 12.667 L 69.333 12.667 L 69.333 12.667 L 69.333 12.667 L 69.333 12.667 L 69.333 12.667 L 69.333 12.667 Z  M 75.333 20.667 L 74.667 20.667 L 74.667 20 L 75.333 20 L 75.333 20.667 L 75.333 20.667 L 75.333 20.667 L 75.333 20.667 L 75.333 20.667 L 75.333 20.667 L 75.333 20.667 L 75.333 20.667 L 75.333 20.667 L 75.333 20.667 L 75.333 20.667 L 75.333 20.667 L 75.333 20.667 L 75.333 20.667 Z  M 77 20 L 78 20 L 78 20.667 L 77 20.667 L 77 20 L 77 20 L 77 20 L 77 20 L 77 20 L 77 20 L 77 20 L 77 20 L 77 20 L 77 20 L 77 20 L 77 20 Z  M 68.333 12.667 C 68.333 12.483 68.483 12.333 68.667 12.333 C 68.851 12.333 69 12.483 69 12.667 C 69 12.851 68.851 13 68.667 13 C 68.483 13 68.333 12.851 68.333 12.667 L 68.333 12.667 L 68.333 12.667 L 68.333 12.667 L 68.333 12.667 L 68.333 12.667 L 68.333 12.667 L 68.333 12.667 L 68.333 12.667 L 68.333 12.667 L 68.333 12.667 L 68.333 12.667 L 68.333 12.667 L 68.333 12.667 L 68.333 12.667 Z  M 78.667 20 L 83.333 20 L 83.333 20.667 L 78.667 20.667 L 78.667 20 L 78.667 20 L 78.667 20 L 78.667 20 L 78.667 20 L 78.667 20 L 78.667 20 L 78.667 20 L 78.667 20 L 78.667 20 L 78.667 20 Z  M 75.333 23.333 L 74.667 23.333 L 74.667 22.667 L 75.333 22.667 L 75.333 23.333 L 75.333 23.333 L 75.333 23.333 L 75.333 23.333 L 75.333 23.333 L 75.333 23.333 L 75.333 23.333 L 75.333 23.333 L 75.333 23.333 L 75.333 23.333 L 75.333 23.333 Z  M 77 22.667 L 78 22.667 L 78 23.333 L 77 23.333 L 77 22.667 L 77 22.667 L 77 22.667 L 77 22.667 L 77 22.667 L 77 22.667 L 77 22.667 L 77 22.667 L 77 22.667 Z  M 78.667 22.667 L 83.333 22.667 L 83.333 23.333 L 78.667 23.333 L 78.667 22.667 L 78.667 22.667 L 78.667 22.667 L 78.667 22.667 L 78.667 22.667 L 78.667 22.667 L 78.667 22.667 L 78.667 22.667 Z  M 75.333 26 L 74.667 26 L 74.667 25.333 L 75.333 25.333 L 75.333 26 L 75.333 26 L 75.333 26 L 75.333 26 L 75.333 26 L 75.333 26 L 75.333 26 L 75.333 26 Z  M 78.667 25.333 L 83.333 25.333 L 83.333 26 L 78.667 26 L 78.667 25.333 L 78.667 25.333 L 78.667 25.333 L 78.667 25.333 L 78.667 25.333 Z  M 75.333 28.667 L 74.667 28.667 L 74.667 28 L 75.333 28 L 75.333 28.667 L 75.333 28.667 L 75.333 28.667 L 75.333 28.667 L 75.333 28.667 Z  M 77 28 L 78 28 L 78 28.667 L 77 28.667 L 77 28 L 77 28 L 77 28 Z  M 78.667 28 L 83.333 28 L 83.333 28.667 L 78.667 28.667 L 78.667 28 L 78.667 28 Z  M 75.667 19.333 L 74.333 19.333 C 74.245 19.333 74.16 19.368 74.098 19.431 C 74.035 19.493 74 19.578 74 19.667 L 74 21 C 74 21.088 74.035 21.173 74.098 21.236 C 74.16 21.298 74.245 21.333 74.333 21.333 L 75.667 21.333 C 75.755 21.333 75.84 21.298 75.902 21.236 C 75.965 21.173 76 21.088 76 21 L 76 19.667 C 76 19.578 75.965 19.493 75.902 19.431 C 75.84 19.368 75.755 19.333 75.667 19.333 L 75.667 19.333 L 75.667 19.333 L 75.667 19.333 L 75.667 19.333 L 75.667 19.333 L 75.667 19.333 L 75.667 19.333 L 75.667 19.333 L 75.667 19.333 L 75.667 19.333 L 75.667 19.333 L 75.667 19.333 L 75.667 19.333 L 75.667 19.333 Z  M 75.667 24.667 L 74.333 24.667 C 74.245 24.667 74.16 24.702 74.098 24.764 C 74.035 24.827 74 24.912 74 25 L 74 26.333 C 74 26.422 74.035 26.507 74.098 26.569 C 74.16 26.632 74.245 26.667 74.333 26.667 L 75.667 26.667 C 75.755 26.667 75.84 26.632 75.902 26.569 C 75.965 26.507 76 26.422 76 26.333 L 76 25 C 76 24.912 75.965 24.827 75.902 24.764 C 75.84 24.702 75.755 24.667 75.667 24.667 L 75.667 24.667 L 75.667 24.667 L 75.667 24.667 L 75.667 24.667 L 75.667 24.667 L 75.667 24.667 L 75.667 24.667 L 75.667 24.667 Z  M 75.667 22 L 74.333 22 C 74.245 22 74.16 22.035 74.098 22.098 C 74.035 22.16 74 22.245 74 22.333 L 74 23.667 C 74 23.755 74.035 23.84 74.098 23.902 C 74.16 23.965 74.245 24 74.333 24 L 75.667 24 C 75.755 24 75.84 23.965 75.902 23.902 C 75.965 23.84 76 23.755 76 23.667 L 76 22.333 C 76 22.245 75.965 22.16 75.902 22.098 C 75.84 22.035 75.755 22 75.667 22 L 75.667 22 L 75.667 22 L 75.667 22 L 75.667 22 L 75.667 22 L 75.667 22 L 75.667 22 L 75.667 22 L 75.667 22 L 75.667 22 L 75.667 22 Z  M 75.667 27.333 L 74.333 27.333 C 74.245 27.333 74.16 27.368 74.098 27.431 C 74.035 27.493 74 27.578 74 27.667 L 74 29 C 74 29.088 74.035 29.173 74.098 29.236 C 74.16 29.298 74.245 29.333 74.333 29.333 L 75.667 29.333 C 75.755 29.333 75.84 29.298 75.902 29.236 C 75.965 29.173 76 29.088 76 29 L 76 27.667 C 76 27.578 75.965 27.493 75.902 27.431 C 75.84 27.368 75.755 27.333 75.667 27.333 L 75.667 27.333 L 75.667 27.333 L 75.667 27.333 L 75.667 27.333 L 75.667 27.333 Z  M 85.333 30 C 85.333 30.184 85.184 30.333 85 30.333 L 67 30.333 C 66.816 30.333 66.667 30.184 66.667 30 L 66.667 12 C 66.667 11.816 66.816 11.667 67 11.667 L 85 11.667 C 85.184 11.667 85.333 11.816 85.333 12 L 85.333 30 L 85.333 30 L 85.333 30 L 85.333 30 L 85.333 30 L 85.333 30 L 85.333 30 L 85.333 30 L 85.333 30 L 85.333 30 L 85.333 30 L 85.333 30 L 85.333 30 L 85.333 30 L 85.333 30 L 85.333 30 L 85.333 30 Z  M 85 11 L 67 11 C 66.448 11.001 66.001 11.448 66 12 L 66 30 C 66.001 30.552 66.448 30.999 67 31 L 85 31 C 85.552 30.999 85.999 30.552 86 30 L 86 12 C 85.999 11.448 85.552 11.001 85 11 L 85 11 L 85 11 L 85 11 L 85 11 L 85 11 L 85 11 L 85 11 L 85 11 L 85 11 L 85 11 L 85 11 L 85 11 L 85 11 L 85 11 L 85 11 L 85 11 L 85 11 Z  M 72.333 28.667 L 68.333 28.667 L 68.333 18.333 L 72.333 18.333 L 72.333 28.667 L 72.333 28.667 Z  M 83.667 17.667 L 68.333 17.667 L 68.333 15 L 83.667 15 L 83.667 17.667 L 83.667 17.667 Z  M 84 14.333 L 68 14.333 C 67.912 14.333 67.827 14.368 67.764 14.431 C 67.702 14.493 67.667 14.578 67.667 14.667 L 67.667 29 C 67.667 29.088 67.702 29.173 67.764 29.236 C 67.827 29.298 67.912 29.333 68 29.333 L 72.667 29.333 C 72.755 29.333 72.84 29.298 72.902 29.236 C 72.965 29.173 73 29.088 73 29 L 73 18.333 L 84 18.333 C 84.088 18.333 84.173 18.298 84.236 18.236 C 84.298 18.173 84.333 18.088 84.333 18 L 84.333 14.667 C 84.333 14.578 84.298 14.493 84.236 14.431 C 84.173 14.368 84.088 14.333 84 14.333 L 84 14.333 L 84 14.333 Z " fill-rule="evenodd" fill="rgb(255,255,255)"/></svg>