<?xml version="1.0" standalone="no"?><!-- Generator: Gravit.io --><svg xmlns="http://www.w3.org/2000/svg" xmlns:xlink="http://www.w3.org/1999/xlink" style="isolation:isolate" viewBox="3 3.413 16.266 16.266" width="16.266" height="16.266"><path d=" M 11.133 9.497 L 5.473 3.837 C 4.908 3.272 3.99 3.272 3.424 3.837 L 3.424 3.837 C 2.859 4.403 2.859 5.321 3.424 5.887 L 9.084 11.546 L 3.424 17.206 C 2.859 17.771 2.859 18.69 3.424 19.255 L 3.424 19.255 C 3.99 19.82 4.908 19.82 5.473 19.255 L 11.133 13.595 L 16.793 19.255 C 17.358 19.82 18.276 19.82 18.842 19.255 L 18.842 19.255 C 19.407 18.69 19.407 17.771 18.842 17.206 L 13.182 11.546 L 18.842 5.887 C 19.407 5.321 19.407 4.403 18.842 3.837 L 18.842 3.837 C 18.276 3.272 17.358 3.272 16.793 3.837 L 11.133 9.497 Z " fill-rule="evenodd" fill="rgb(235,235,235)"/></svg>