<?xml version="1.0" standalone="no"?><!-- Generator: Gravit.io --><svg xmlns="http://www.w3.org/2000/svg" xmlns:xlink="http://www.w3.org/1999/xlink" style="isolation:isolate" viewBox="231.65 149.968 44.09 42.032" width="44.09" height="42.032"><g><linearGradient id="_lgradient_3" x1="0.5" y1="1.0698863636363638" x2="0.5000000000000001" y2="0.06988636363636358" gradientTransform="matrix(30.174,0,0,30.174,235.65,157.826)" gradientUnits="userSpaceOnUse"><stop offset="0%" stop-opacity="1" style="stop-color:rgb(255,192,80)"/><stop offset="0.4%" stop-opacity="1" style="stop-color:rgb(255,192,80)"/><stop offset="64.1%" stop-opacity="1" style="stop-color:rgb(255,190,117)"/><stop offset="100%" stop-opacity="1" style="stop-color:rgb(255,189,133)"/><stop offset="100%" stop-opacity="1" style="stop-color:rgb(255,189,133)"/></linearGradient><path d=" M 263.081 157.826 L 238.393 157.826 C 236.878 157.826 235.65 159.054 235.65 160.569 L 235.65 185.257 C 235.65 186.772 236.878 188 238.393 188 L 263.081 188 C 264.596 188 265.824 186.772 265.824 185.257 L 265.824 160.569 C 265.824 159.054 264.596 157.826 263.081 157.826 Z " fill="url(#_lgradient_3)" vector-effect="non-scaling-stroke" stroke-width="2" stroke="rgb(255,255,255)" stroke-linejoin="miter" stroke-linecap="butt" stroke-miterlimit="4"/><linearGradient id="_lgradient_4" x1="0.5" y1="1.7944482758620692" x2="0.5000000000000001" y2="0.21665517241379306" gradientTransform="matrix(15.087,0,0,19.888,235.65,157.826)" gradientUnits="userSpaceOnUse"><stop offset="0%" stop-opacity="1" style="stop-color:rgb(255,201,106)"/><stop offset="0.4%" stop-opacity="1" style="stop-color:rgb(255,201,106)"/><stop offset="57.8%" stop-opacity="1" style="stop-color:rgb(255,200,135)"/><stop offset="100%" stop-opacity="1" style="stop-color:rgb(255,199,151)"/><stop offset="100%" stop-opacity="1" style="stop-color:rgb(255,199,151)"/></linearGradient><path d=" M 250.737 159.54 L 250.737 159.54 C 250.737 158.593 249.97 157.826 249.022 157.826 L 238.393 157.826 C 236.878 157.826 235.65 159.054 235.65 160.569 L 235.65 177.713 L 242.508 177.713 C 243.644 177.713 244.565 176.792 244.565 175.656 L 244.565 175.656 C 244.565 174.52 243.644 173.599 242.508 173.599 L 241.822 173.599 C 240.685 173.599 239.764 172.678 239.764 171.541 L 239.764 171.541 C 239.764 170.405 240.685 169.484 241.822 169.484 L 244.565 169.484 C 245.701 169.484 246.622 168.563 246.622 167.427 L 246.622 167.427 C 246.622 166.29 245.701 165.369 244.565 165.369 L 242.508 165.369 C 241.371 165.369 240.45 164.448 240.45 163.312 L 240.45 163.312 C 240.45 162.175 241.371 161.254 242.508 161.254 L 249.022 161.254 C 249.97 161.254 250.737 160.487 250.737 159.54 Z " fill="url(#_lgradient_4)"/><linearGradient id="_lgradient_5" x1="0.49999813187162445" y1="1.7643529411764707" x2="0.4999981318716245" y2="0.7643529411764707" gradientTransform="matrix(14.401,0,0,11.658,251.423,176.342)" gradientUnits="userSpaceOnUse"><stop offset="0%" stop-opacity="1" style="stop-color:rgb(255,139,103)"/><stop offset="84.7%" stop-opacity="1" style="stop-color:rgb(255,167,106)"/><stop offset="100%" stop-opacity="1" style="stop-color:rgb(255,173,107)"/></linearGradient><path d=" M 265.824 185.257 L 265.824 176.342 C 263.71 176.342 258.885 176.342 257.683 176.342 C 256.687 176.342 255.772 177.008 255.579 177.984 C 255.319 179.295 256.327 180.456 257.595 180.456 L 257.938 180.456 C 258.885 180.456 259.652 181.224 259.652 182.171 C 259.652 183.118 258.885 183.885 257.938 183.885 L 253.57 183.885 C 252.575 183.885 251.657 184.552 251.464 185.528 C 251.204 186.839 252.213 188 253.48 188 L 263.081 188 C 264.596 188 265.824 186.772 265.824 185.257 Z " fill="url(#_lgradient_5)"/><path d=" M 273.368 150.968 L 263.756 150.968 C 262.546 150.968 261.941 152.43 262.796 153.286 L 265.893 156.384 L 257.619 164.659 C 256.672 165.606 256.672 167.141 257.619 168.088 L 257.619 168.088 C 258.566 169.035 260.101 169.035 261.048 168.088 L 269.323 159.813 L 272.421 162.911 C 273.276 163.767 274.739 163.161 274.739 161.951 L 274.739 152.339 C 274.739 151.581 274.125 150.968 273.368 150.968 Z " fill="rgb(255,255,255)" vector-effect="non-scaling-stroke" stroke-width="0.5" stroke="rgb(255,255,255)" stroke-opacity="0.44" stroke-linejoin="miter" stroke-linecap="butt" stroke-miterlimit="4"/></g></svg>