<?xml version="1.0" standalone="no"?><!-- Generator: Gravit.io --><svg xmlns="http://www.w3.org/2000/svg" xmlns:xlink="http://www.w3.org/1999/xlink" style="isolation:isolate" viewBox="5.231 4.097 21.804 14.898" width="21.804" height="14.898"><g><path d="M 5.231 17.651 L 5.231 17.442 C 5.231 16.7 5.833 16.097 6.575 16.097 L 22.656 16.097 C 23.398 16.097 24 16.7 24 17.442 L 24 17.651 C 24 18.393 23.398 18.995 22.656 18.995 L 6.575 18.995 C 5.833 18.995 5.231 18.393 5.231 17.651 Z" style="stroke:none;fill:#EBEBEB;stroke-miterlimit:10;"/><path d="M 5.231 11.762 L 5.231 11.331 C 5.231 10.65 5.784 10.097 6.464 10.097 L 19.799 10.097 C 20.48 10.097 21.032 10.65 21.032 11.331 L 21.032 11.762 C 21.032 12.442 20.48 12.995 19.799 12.995 L 6.464 12.995 C 5.784 12.995 5.231 12.442 5.231 11.762 Z" style="stroke:none;fill:#EBEBEB;stroke-miterlimit:10;"/><path d="M 5.231 5.546 L 5.231 5.546 C 5.231 4.747 5.88 4.097 6.68 4.097 L 25.586 4.097 C 26.385 4.097 27.035 4.747 27.035 5.546 L 27.035 5.546 C 27.035 6.346 26.385 6.995 25.586 6.995 L 6.68 6.995 C 5.88 6.995 5.231 6.346 5.231 5.546 Z" style="stroke:none;fill:#EBEBEB;stroke-miterlimit:10;"/></g></svg>