<?xml version="1.0" standalone="no"?><!-- Generator: Gravit.io --><svg xmlns="http://www.w3.org/2000/svg" xmlns:xlink="http://www.w3.org/1999/xlink" style="isolation:isolate" viewBox="492 116 48 48" width="48" height="48"><g><linearGradient id="_lgradient_0" x1="0.4377097577002901" y1="-0.16964285714285052" x2="0.39227676149295704" y2="1.2387800252844543" gradientTransform="matrix(0,-48,48,0,492,164)" gradientUnits="userSpaceOnUse"><stop offset="0%" stop-opacity="1" style="stop-color:rgb(0,150,136)"/><stop offset="98.26086956521739%" stop-opacity="1" style="stop-color:rgb(74,134,232)"/></linearGradient><path d=" M 516 164 C 502.754 164 492 153.246 492 140 C 492 126.754 502.754 116 516 116 C 529.246 116 540 126.754 540 140 C 540 153.246 529.246 164 516 164 Z " fill="url(#_lgradient_0)"/><g><path d="M 509.498 125.236 L 509.506 125.228 C 510.398 124.423 511.847 124.423 512.739 125.228 L 527.333 138.4 C 528.226 139.206 528.226 140.513 527.333 141.318 L 527.325 141.326 C 526.433 142.131 524.984 142.131 524.092 141.326 L 509.498 128.153 C 508.606 127.348 508.606 126.041 509.498 125.236 Z" style="stroke:none;fill:#EBEBEB;stroke-miterlimit:10;"/><path d="M 509.498 154.764 L 509.506 154.772 C 510.398 155.577 511.847 155.577 512.739 154.772 L 527.333 141.6 C 528.226 140.794 528.226 139.487 527.333 138.682 L 527.325 138.674 C 526.433 137.869 524.984 137.869 524.092 138.674 L 509.498 151.847 C 508.606 152.652 508.606 153.959 509.498 154.764 Z" style="stroke:none;fill:#EBEBEB;stroke-miterlimit:10;"/></g></g></svg>