<?xml version="1.0" standalone="no"?><!-- Generator: Gravit.io --><svg xmlns="http://www.w3.org/2000/svg" xmlns:xlink="http://www.w3.org/1999/xlink" style="isolation:isolate" viewBox="512 126 28 28" width="28" height="28"><g><linearGradient id="_lgradient_1" x1="0.4377097577002901" y1="-0.16964285714285052" x2="0.39227676149295704" y2="1.2387800252844543" gradientTransform="matrix(0,-28,-28,0,540,154)" gradientUnits="userSpaceOnUse"><stop offset="0%" stop-opacity="1" style="stop-color:rgb(0,150,136)"/><stop offset="98.26086956521739%" stop-opacity="1" style="stop-color:rgb(74,134,232)"/></linearGradient><path d=" M 526 154 C 533.727 154 540 147.727 540 140 C 540 132.273 533.727 126 526 126 C 518.273 126 512 132.273 512 140 C 512 147.727 518.273 154 526 154 Z " fill="url(#_lgradient_1)"/><g><path d="M 529.793 131.387 L 529.788 131.383 C 529.268 130.913 528.423 130.913 527.902 131.383 L 519.389 139.067 C 518.868 139.537 518.868 140.299 519.389 140.769 L 519.394 140.773 C 519.914 141.243 520.759 141.243 521.28 140.773 L 529.793 133.09 C 530.313 132.62 530.313 131.857 529.793 131.387 Z" style="stroke:none;fill:#EBEBEB;stroke-miterlimit:10;"/><path d="M 529.793 148.613 L 529.788 148.617 C 529.268 149.087 528.423 149.087 527.902 148.617 L 519.389 140.933 C 518.868 140.463 518.868 139.701 519.389 139.231 L 519.394 139.227 C 519.914 138.757 520.759 138.757 521.28 139.227 L 529.793 146.91 C 530.313 147.38 530.313 148.143 529.793 148.613 Z" style="stroke:none;fill:#EBEBEB;stroke-miterlimit:10;"/></g></g></svg>