<?xml version="1.0" standalone="no"?><!-- Generator: Gravit.io --><svg xmlns="http://www.w3.org/2000/svg" xmlns:xlink="http://www.w3.org/1999/xlink" style="isolation:isolate" viewBox="4 58 20 20" width="20" height="20"><path d=" M 17.93 62.333 C 17.93 62.149 17.779 62 17.593 62 L 14.895 62 C 14.709 62 14.558 62.149 14.558 62.333 C 14.558 62.517 14.709 62.667 14.895 62.667 L 17.593 62.667 C 17.779 62.667 17.93 62.517 17.93 62.333 L 17.93 62.333 L 17.93 62.333 L 17.93 62.333 L 17.93 62.333 L 17.93 62.333 L 17.93 62.333 Z  M 21.977 70.333 C 21.977 70.149 21.826 70 21.64 70 L 17.256 70 C 17.07 70 16.919 70.149 16.919 70.333 C 16.919 70.517 17.07 70.667 17.256 70.667 L 21.64 70.667 C 21.826 70.667 21.977 70.517 21.977 70.333 L 21.977 70.333 L 21.977 70.333 L 21.977 70.333 L 21.977 70.333 L 21.977 70.333 L 21.977 70.333 L 21.977 70.333 L 21.977 70.333 Z  M 14.33 72.911 C 14.376 72.875 14.422 72.84 14.467 72.804 C 14.634 72.672 14.793 72.531 14.945 72.382 C 15.095 72.232 15.238 72.075 15.372 71.91 C 15.408 71.866 15.444 71.82 15.479 71.775 C 15.52 71.722 15.565 71.672 15.604 71.618 L 18.478 74.463 C 18.669 74.65 18.776 74.904 18.776 75.168 C 18.776 75.433 18.669 75.687 18.478 75.874 C 18.08 76.254 17.449 76.254 17.051 75.874 L 14.172 73.033 C 14.226 72.994 14.277 72.951 14.33 72.911 L 14.33 72.911 L 14.33 72.911 L 14.33 72.911 L 14.33 72.911 L 14.33 72.911 L 14.33 72.911 L 14.33 72.911 L 14.33 72.911 L 14.33 72.911 L 14.33 72.911 L 14.33 72.911 L 14.33 72.911 L 14.33 72.911 Z  M 17.93 60.333 C 17.93 60.149 17.779 60 17.593 60 L 10.175 60 C 9.988 60 9.837 60.149 9.837 60.333 C 9.837 60.517 9.988 60.667 10.175 60.667 L 17.593 60.667 C 17.779 60.667 17.93 60.517 17.93 60.333 L 17.93 60.333 L 17.93 60.333 L 17.93 60.333 L 17.93 60.333 L 17.93 60.333 L 17.93 60.333 L 17.93 60.333 L 17.93 60.333 L 17.93 60.333 L 17.93 60.333 L 17.93 60.333 Z  M 21.64 66 L 17.593 66 C 17.407 66 17.256 66.149 17.256 66.333 C 17.256 66.517 17.407 66.667 17.593 66.667 L 21.64 66.667 C 21.826 66.667 21.977 66.517 21.977 66.333 C 21.977 66.149 21.826 66 21.64 66 L 21.64 66 L 21.64 66 L 21.64 66 L 21.64 66 L 21.64 66 L 21.64 66 L 21.64 66 L 21.64 66 L 21.64 66 L 21.64 66 Z  M 21.977 64.333 C 21.977 64.149 21.826 64 21.64 64 L 16.581 64 C 16.395 64 16.244 64.149 16.244 64.333 C 16.244 64.517 16.395 64.667 16.581 64.667 L 21.64 64.667 C 21.826 64.667 21.977 64.517 21.977 64.333 L 21.977 64.333 L 21.977 64.333 L 21.977 64.333 L 21.977 64.333 L 21.977 64.333 Z  M 21.64 68 L 17.593 68 C 17.407 68 17.256 68.149 17.256 68.333 C 17.256 68.517 17.407 68.667 17.593 68.667 L 21.64 68.667 C 21.826 68.667 21.977 68.517 21.977 68.333 C 21.977 68.149 21.826 68 21.64 68 L 21.64 68 L 21.64 68 L 21.64 68 L 21.64 68 L 21.64 68 L 21.64 68 L 21.64 68 L 21.64 68 L 21.64 68 Z  M 22.849 62 L 20.291 62 C 20.105 62 19.954 61.851 19.954 61.667 L 19.954 59.138 L 22.849 62 L 22.849 62 L 22.849 62 L 22.849 62 L 22.849 62 L 22.849 62 L 22.849 62 L 22.849 62 L 22.849 62 L 22.849 62 L 22.849 62 L 22.849 62 L 22.849 62 Z  M 21.977 72.333 C 21.977 72.149 21.826 72 21.64 72 L 18.605 72 C 18.418 72 18.268 72.149 18.268 72.333 C 18.268 72.517 18.418 72.667 18.605 72.667 L 21.64 72.667 C 21.826 72.667 21.977 72.517 21.977 72.333 L 21.977 72.333 L 21.977 72.333 L 21.977 72.333 L 21.977 72.333 L 21.977 72.333 L 21.977 72.333 L 21.977 72.333 Z  M 9.163 66.333 L 11.523 66.333 C 11.71 66.333 11.861 66.184 11.861 66 C 11.861 65.816 11.71 65.667 11.523 65.667 L 9.163 65.667 C 8.977 65.667 8.826 65.816 8.826 66 C 8.826 66.184 8.977 66.333 9.163 66.333 L 9.163 66.333 L 9.163 66.333 L 9.163 66.333 L 9.163 66.333 Z  M 13.209 68 C 13.209 67.816 13.058 67.667 12.872 67.667 L 7.814 67.667 C 7.628 67.667 7.477 67.816 7.477 68 C 7.477 68.184 7.628 68.333 7.814 68.333 L 12.872 68.333 C 13.058 68.333 13.209 68.184 13.209 68 L 13.209 68 L 13.209 68 L 13.209 68 Z  M 11.523 69.667 L 9.163 69.667 C 8.977 69.667 8.826 69.816 8.826 70 C 8.826 70.184 8.977 70.333 9.163 70.333 L 11.523 70.333 C 11.71 70.333 11.861 70.184 11.861 70 C 11.861 69.816 11.71 69.667 11.523 69.667 L 11.523 69.667 L 11.523 69.667 Z  M 8.313 71.706 C 7.946 71.508 7.609 71.259 7.314 70.967 C 7.109 70.764 6.925 70.543 6.764 70.305 C 6.684 70.187 6.611 70.066 6.544 69.942 C 5.529 68.048 6.066 65.704 7.809 64.429 C 9.551 63.153 11.976 63.327 13.513 64.839 C 14.875 66.198 15.181 68.275 14.268 69.961 L 14.268 69.964 C 13.866 70.708 13.25 71.317 12.497 71.714 C 11.192 72.415 9.616 72.412 8.313 71.707 L 8.313 71.706 L 8.313 71.706 L 8.313 71.706 Z  M 12.814 72.3 C 13.637 71.867 14.319 71.213 14.782 70.414 C 14.808 70.368 14.837 70.323 14.862 70.276 C 14.875 70.252 14.885 70.227 14.898 70.203 C 14.949 70.106 14.999 70.009 15.043 69.909 C 15.087 69.809 15.122 69.715 15.158 69.617 C 15.169 69.588 15.182 69.561 15.192 69.532 C 16.049 67.067 14.848 64.364 12.43 63.322 C 10.013 62.281 7.192 63.249 5.948 65.548 C 5.557 66.272 5.353 67.081 5.355 67.902 C 5.352 69.664 6.288 71.297 7.819 72.199 C 9.349 73.102 11.247 73.141 12.814 72.302 L 12.814 72.3 L 12.814 72.3 L 12.814 72.3 Z  M 4.681 67.903 C 4.68 66.4 5.283 64.957 6.358 63.894 C 7.434 62.831 8.893 62.235 10.414 62.237 C 10.606 62.237 10.796 62.246 10.984 62.264 C 13.591 62.519 15.689 64.493 16.076 67.055 C 16.12 67.335 16.144 67.619 16.146 67.903 C 16.149 68.971 15.843 70.017 15.266 70.919 C 14.809 71.64 14.192 72.25 13.463 72.702 C 11.696 73.798 9.466 73.86 7.641 72.862 C 5.815 71.865 4.682 69.965 4.681 67.903 L 4.681 67.903 L 4.681 67.903 L 4.681 67.903 L 4.681 67.903 L 4.681 67.903 L 4.681 67.903 L 4.681 67.903 L 4.681 67.903 L 4.681 67.903 L 4.681 67.903 L 4.681 67.903 L 4.681 67.903 L 4.681 67.903 Z  M 22.314 77.333 L 9.5 77.333 C 8.942 77.333 8.489 76.886 8.489 76.333 L 8.489 73.947 C 8.509 73.954 8.531 73.958 8.553 73.964 C 8.607 73.981 8.661 73.994 8.716 74.009 C 8.842 74.042 8.969 74.075 9.098 74.1 C 9.161 74.113 9.224 74.125 9.287 74.136 C 9.416 74.159 9.545 74.176 9.676 74.191 C 9.734 74.198 9.791 74.206 9.849 74.211 C 10.036 74.226 10.224 74.237 10.414 74.237 C 11.529 74.237 12.624 73.949 13.59 73.4 L 16.572 76.344 C 16.99 76.797 17.626 76.986 18.228 76.836 C 18.829 76.687 19.299 76.223 19.451 75.628 C 19.603 75.034 19.412 74.405 18.955 73.991 L 15.975 71.043 C 16.53 70.088 16.822 69.005 16.821 67.903 C 16.821 67.692 16.811 67.483 16.79 67.275 C 16.646 65.819 15.994 64.457 14.945 63.425 C 13.746 62.233 12.114 61.565 10.414 61.57 C 10.224 61.57 10.036 61.58 9.849 61.596 C 9.791 61.601 9.733 61.609 9.675 61.616 C 9.545 61.63 9.417 61.648 9.288 61.67 C 9.224 61.681 9.16 61.694 9.097 61.707 C 8.97 61.733 8.844 61.763 8.719 61.797 C 8.663 61.812 8.607 61.826 8.551 61.842 C 8.53 61.849 8.508 61.853 8.488 61.86 L 8.488 59.667 C 8.488 59.114 8.941 58.667 9.499 58.667 L 19.279 58.667 L 19.279 61.667 C 19.279 62.219 19.732 62.667 20.291 62.667 L 23.326 62.667 L 23.326 76.333 C 23.326 76.886 22.873 77.333 22.314 77.333 L 22.314 77.333 L 22.314 77.333 L 22.314 77.333 L 22.314 77.333 L 22.314 77.333 L 22.314 77.333 L 22.314 77.333 L 22.314 77.333 L 22.314 77.333 L 22.314 77.333 L 22.314 77.333 L 22.314 77.333 L 22.314 77.333 Z  M 23.996 62.312 C 23.994 62.283 23.988 62.254 23.978 62.227 C 23.975 62.216 23.972 62.206 23.967 62.195 C 23.951 62.159 23.928 62.126 23.9 62.098 L 19.853 58.098 C 19.825 58.07 19.791 58.047 19.754 58.031 C 19.744 58.026 19.734 58.024 19.724 58.02 C 19.695 58.01 19.665 58.004 19.635 58.003 C 19.63 58.004 19.623 58 19.616 58 L 9.5 58 C 8.57 58.001 7.815 58.747 7.814 59.667 L 7.814 62.12 C 5.496 63.131 4 65.399 4 67.903 C 4 70.408 5.496 72.676 7.814 73.687 L 7.814 76.333 C 7.815 77.253 8.57 77.999 9.5 78 L 22.314 78 C 23.245 77.999 23.999 77.253 24 76.333 L 24 62.333 C 24 62.326 23.996 62.32 23.996 62.312 L 23.996 62.312 L 23.996 62.312 L 23.996 62.312 L 23.996 62.312 L 23.996 62.312 L 23.996 62.312 L 23.996 62.312 L 23.996 62.312 L 23.996 62.312 L 23.996 62.312 L 23.996 62.312 L 23.996 62.312 Z  M 22.314 74 C 22.128 74 21.977 74.149 21.977 74.333 L 21.977 75.667 C 21.977 75.851 21.826 76 21.64 76 L 20.291 76 C 20.105 76 19.954 76.149 19.954 76.333 C 19.954 76.517 20.105 76.667 20.291 76.667 L 21.64 76.667 C 22.198 76.667 22.651 76.219 22.651 75.667 L 22.651 74.333 C 22.651 74.149 22.5 74 22.314 74 Z " fill-rule="evenodd" fill="rgb(255,255,255)"/></svg>