<?xml version="1.0" standalone="no"?><!-- Generator: Gravit.io --><svg xmlns="http://www.w3.org/2000/svg" xmlns:xlink="http://www.w3.org/1999/xlink" style="isolation:isolate" viewBox="40.151 40.21 21.948 18.54" width="21.948" height="18.54"><g><g><g><path d=" M 51.183 45.635 C 51.385 46.121 52.465 47.036 53.529 47.036 C 54.753 47.036 55.728 46.173 56.099 45.662 C 56.443 46.211 57.483 47.012 58.767 47.012 C 60.051 47.012 61.349 46.157 61.349 44.972 C 61.349 44.677 61.292 44.461 61.19 44.172 L 60.185 40.96 L 51.724 40.96" fill="none" vector-effect="non-scaling-stroke" stroke-width="1.5" stroke="rgb(255,255,255)" stroke-linejoin="round" stroke-linecap="round" stroke-miterlimit="10"/><path d=" M 51.724 40.96 L 51.07 40.96 L 42.061 40.96 L 41.059 44.173 C 40.957 44.462 40.901 44.661 40.901 44.956 C 40.901 46.141 42.204 47.007 43.487 47.007 C 44.771 47.007 45.818 46.215 46.163 45.667 C 46.534 46.178 47.523 47.052 48.747 47.052 C 49.812 47.052 50.981 46.12 51.183 45.634" fill="none" vector-effect="non-scaling-stroke" stroke-width="1.5" stroke="rgb(255,255,255)" stroke-linejoin="round" stroke-linecap="round" stroke-miterlimit="10"/><path d=" M 60.057 47.17 L 60.057 56.484 C 60.057 57.281 59.355 58 58.6 58 L 43.8 58 C 43.045 58 42.297 57.281 42.297 56.484 L 42.297 46.881" fill="none" vector-effect="non-scaling-stroke" stroke-width="1.5" stroke="rgb(255,255,255)" stroke-linejoin="round" stroke-linecap="round" stroke-miterlimit="10"/><path d=" M 53.773 57.278 L 53.773 51.482 C 53.773 50.784 54.341 50.202 55.001 50.202 L 56.402 50.202 C 57.063 50.202 57.598 50.784 57.598 51.482 L 57.598 57.278" fill="none" vector-effect="non-scaling-stroke" stroke-width="1.5" stroke="rgb(255,255,255)" stroke-linejoin="round" stroke-linecap="round" stroke-miterlimit="10"/><path d=" M 50.767 54.823 C 50.767 55.142 50.522 55.401 50.221 55.401 L 45.302 55.401 C 45 55.401 44.756 55.142 44.756 54.823 L 44.756 50.78 C 44.756 50.461 45 50.202 45.302 50.202 L 50.221 50.202 C 50.522 50.202 50.767 50.461 50.767 50.78 L 50.767 54.823 L 50.767 54.823 Z " fill="none" vector-effect="non-scaling-stroke" stroke-width="1.5" stroke="rgb(255,255,255)" stroke-linejoin="round" stroke-linecap="round" stroke-miterlimit="10"/></g></g></g></svg>