<?xml version="1.0" standalone="no"?><!-- Generator: Gravit.io --><svg xmlns="http://www.w3.org/2000/svg" xmlns:xlink="http://www.w3.org/1999/xlink" style="isolation:isolate" viewBox="148.875 481.208 183 183" width="183" height="183"><g><path d="M 155.28 481.208 L 325.47 481.208 C 329.005 481.208 331.875 484.078 331.875 487.613 L 331.875 657.803 C 331.875 661.338 329.005 664.208 325.47 664.208 L 155.28 664.208 C 151.745 664.208 148.875 661.338 148.875 657.803 L 148.875 487.613 C 148.875 484.078 151.745 481.208 155.28 481.208 Z" style="stroke:none;fill:#171717;stroke-miterlimit:10;"/><path d=" M 231.522 557.387 L 289.537 530.334 L 290 501.333 L 191.213 543.082 L 191.213 543.082 L 191.338 543.351 L 191.109 543.271 L 191.109 569.568 L 252.412 594.378 L 191.213 623.082 L 191.213 623.082 L 192 652 L 289.537 610.334 L 288.75 577.333 L 288.593 577.407 L 288.625 577.333 L 231.522 557.387 Z " fill-rule="evenodd" fill="rgb(225,136,3)"/></g></svg>