<?xml version="1.0" standalone="no"?><!-- Generator: Gravit.io --><svg xmlns="http://www.w3.org/2000/svg" xmlns:xlink="http://www.w3.org/1999/xlink" style="isolation:isolate" viewBox="347.332 624.513 59.001 59.001" width="59.001" height="59.001"><g><path d="M 356.832 624.513 L 395 624.513 L 395 683.514 L 347.332 683.514 L 347.332 634.013 L 356.832 624.513 Z" style="stroke:none;fill:#E8E8E8;stroke-miterlimit:10;opacity:0.29;"/><path d=" M 406.332 657.338 C 406.332 654.958 404.397 653.021 402.017 653.021 C 400.864 653.021 399.781 653.471 398.965 654.286 L 394.913 658.338 L 394.913 624.513 L 357.405 624.513 L 347.332 634.587 L 347.332 683.514 L 394.913 683.513 L 394.913 670.545 L 405.069 660.39 C 405.883 659.575 406.332 658.491 406.332 657.338 Z  M 383.015 673.873 L 385.491 676.349 L 382.025 677.36 L 383.015 673.873 Z  M 387.3 675.465 L 386.268 674.433 L 399.854 660.846 L 400.887 661.879 L 387.3 675.465 Z  M 384.921 673.087 L 383.888 672.054 L 397.476 658.467 L 398.509 659.5 L 384.921 673.087 Z  M 356.848 627.762 L 356.848 634.029 L 350.581 634.029 L 356.848 627.762 Z  M 393.01 681.61 L 349.235 681.61 L 349.235 635.933 L 358.751 635.933 L 358.751 626.416 L 393.009 626.416 L 393.01 660.241 L 381.694 671.556 L 379.253 680.151 L 387.801 677.658 L 393.01 672.449 L 393.01 681.61 Z  M 403.723 659.044 L 402.234 660.533 L 398.821 657.121 L 400.31 655.632 C 400.766 655.176 401.373 654.925 402.017 654.924 C 403.346 654.924 404.429 656.008 404.429 657.338 C 404.429 657.983 404.178 658.589 403.723 659.044 Z " fill="rgb(232,232,232)"/><path d=" M 366.612 663.841 L 362.516 668.347 C 361.309 667.135 359.64 666.384 357.8 666.384 C 354.128 666.385 351.139 669.374 351.139 673.046 C 351.139 676.718 354.128 679.707 357.8 679.707 C 361.472 679.707 364.461 676.718 364.461 673.046 C 364.461 671.911 364.175 670.842 363.671 669.906 L 368.02 665.121 L 366.612 663.841 Z  M 362.558 673.046 C 362.558 675.669 360.423 677.804 357.8 677.804 C 355.177 677.804 353.042 675.669 353.042 673.046 C 353.042 670.422 355.176 668.288 357.8 668.288 C 359.148 668.288 360.362 668.858 361.229 669.762 L 357.647 673.703 L 355.473 672.255 L 354.418 673.839 L 357.954 676.197 L 362.265 671.455 C 362.443 671.954 362.558 672.484 362.558 673.046 L 362.558 673.046 Z " fill="rgb(0,255,255)"/><path d=" M 362.516 651.217 C 361.308 650.006 359.64 649.255 357.8 649.255 C 354.127 649.255 351.138 652.245 351.138 655.917 C 351.138 659.589 354.128 662.578 357.8 662.578 C 361.472 662.578 364.461 659.589 364.461 655.917 C 364.461 654.781 364.175 653.713 363.671 652.776 L 368.02 647.992 L 366.611 646.712 L 362.516 651.217 Z  M 362.558 655.917 C 362.558 658.54 360.423 660.675 357.8 660.675 C 355.176 660.675 353.042 658.54 353.042 655.917 C 353.042 653.293 355.176 651.159 357.8 651.159 C 359.148 651.159 360.361 651.729 361.228 652.633 L 357.646 656.574 L 355.473 655.126 L 354.417 656.709 L 357.954 659.067 L 362.265 654.326 C 362.443 654.825 362.558 655.355 362.558 655.917 L 362.558 655.917 Z " fill="rgb(0,255,255)"/><path d=" M 389.203 654.965 L 391.106 654.965 L 391.106 656.868 L 389.203 656.868 L 389.203 654.965 Z " fill="rgb(232,232,232)"/><path d=" M 368.268 654.965 L 387.3 654.965 L 387.3 656.868 L 368.268 656.868 L 368.268 654.965 Z " fill="rgb(232,232,232)"/><path d=" M 368.267 651.158 L 391.106 651.158 L 391.106 653.061 L 368.268 653.062 L 368.267 651.158 Z " fill="rgb(232,232,232)"/><path d=" M 368.268 658.771 L 391.106 658.771 L 391.106 660.674 L 368.268 660.675 L 368.268 658.771 Z " fill="rgb(232,232,232)"/><path d=" M 368.268 672.094 L 378.736 672.094 L 378.736 673.997 L 368.268 673.997 L 368.268 672.094 Z " fill="rgb(232,232,232)"/><path d=" M 368.268 675.901 L 378.736 675.9 L 378.736 677.804 L 368.268 677.804 L 368.268 675.901 Z " fill="rgb(232,232,232)"/><path d=" M 368.268 668.288 L 378.736 668.287 L 378.736 670.191 L 368.268 670.191 L 368.268 668.288 Z " fill="rgb(232,232,232)"/><path d=" M 365.413 645.449 L 386.348 645.448 C 388.972 645.448 391.106 643.314 391.106 640.69 L 391.106 633.077 C 391.106 630.454 388.971 628.319 386.348 628.319 L 365.412 628.32 C 362.789 628.32 360.654 630.454 360.654 633.078 L 360.654 640.691 C 360.654 643.314 362.789 645.449 365.413 645.449 Z  M 362.558 633.078 C 362.558 631.504 363.839 630.223 365.412 630.223 L 386.348 630.223 C 387.922 630.223 389.203 631.504 389.203 633.077 L 389.203 640.69 C 389.203 642.264 387.922 643.545 386.348 643.545 L 365.413 643.545 C 363.839 643.545 362.558 642.264 362.558 640.691 L 362.558 633.078 Z " fill="rgb(232,232,232)"/><path d=" M 387.3 634.029 L 381.59 634.029 L 381.59 639.739 L 387.3 639.739 L 387.3 634.029 Z  M 385.396 637.836 L 383.493 637.836 L 383.493 635.932 L 385.396 635.932 L 385.396 637.836 Z " fill="rgb(232,232,232)"/><path d=" M 378.735 634.029 L 373.025 634.029 L 373.025 639.739 L 378.735 639.739 L 378.735 634.029 Z  M 376.832 637.836 L 374.929 637.836 L 374.929 635.932 L 376.832 635.932 L 376.832 637.836 Z " fill="rgb(232,232,232)"/><path d=" M 370.171 634.029 L 364.461 634.029 L 364.461 639.739 L 370.171 639.739 L 370.171 634.029 Z  M 368.267 637.836 L 366.364 637.836 L 366.364 635.933 L 368.267 635.932 L 368.267 637.836 Z " fill="rgb(232,232,232)"/></g></svg>