<?xml version="1.0" standalone="no"?><!-- Generator: Gravit.io --><svg xmlns="http://www.w3.org/2000/svg" xmlns:xlink="http://www.w3.org/1999/xlink" style="isolation:isolate" viewBox="329 840.497 100 101.162" width="100" height="101.162"><path d=" M 398.652 862.415 C 398.652 861.484 397.897 860.729 396.965 860.729 L 383.477 860.729 C 382.546 860.729 381.791 861.484 381.791 862.415 C 381.791 863.346 382.546 864.101 383.477 864.101 L 396.965 864.101 C 397.897 864.101 398.652 863.346 398.652 862.415 L 398.652 862.415 L 398.652 862.415 L 398.652 862.415 L 398.652 862.415 L 398.652 862.415 L 398.652 862.415 Z  M 418.884 902.88 C 418.884 901.948 418.129 901.194 417.198 901.194 L 395.279 901.194 C 394.348 901.194 393.593 901.948 393.593 902.88 C 393.593 903.811 394.348 904.566 395.279 904.566 L 417.198 904.566 C 418.129 904.566 418.884 903.811 418.884 902.88 L 418.884 902.88 L 418.884 902.88 L 418.884 902.88 L 418.884 902.88 L 418.884 902.88 L 418.884 902.88 L 418.884 902.88 L 418.884 902.88 Z  M 380.652 915.916 C 380.882 915.737 381.11 915.56 381.336 915.377 C 382.168 914.706 382.965 913.994 383.725 913.244 C 384.476 912.484 385.188 911.688 385.858 910.856 C 386.042 910.631 386.219 910.401 386.397 910.17 C 386.602 909.904 386.823 909.651 387.018 909.379 L 401.391 923.77 C 402.343 924.712 402.879 925.997 402.879 927.336 C 402.879 928.676 402.343 929.96 401.391 930.903 C 399.401 932.827 396.243 932.827 394.253 930.903 L 379.861 916.537 C 380.132 916.339 380.387 916.12 380.652 915.916 L 380.652 915.916 L 380.652 915.916 L 380.652 915.916 L 380.652 915.916 L 380.652 915.916 L 380.652 915.916 L 380.652 915.916 L 380.652 915.916 L 380.652 915.916 L 380.652 915.916 L 380.652 915.916 L 380.652 915.916 L 380.652 915.916 Z  M 398.652 852.299 C 398.652 851.368 397.897 850.613 396.965 850.613 L 359.873 850.613 C 358.942 850.613 358.187 851.368 358.187 852.299 C 358.187 853.23 358.942 853.985 359.873 853.985 L 396.965 853.985 C 397.897 853.985 398.652 853.23 398.652 852.299 L 398.652 852.299 L 398.652 852.299 L 398.652 852.299 L 398.652 852.299 L 398.652 852.299 L 398.652 852.299 L 398.652 852.299 L 398.652 852.299 L 398.652 852.299 L 398.652 852.299 L 398.652 852.299 Z  M 417.198 880.961 L 396.965 880.961 C 396.034 880.961 395.279 881.716 395.279 882.647 C 395.279 883.578 396.034 884.333 396.965 884.333 L 417.198 884.333 C 418.129 884.333 418.884 883.578 418.884 882.647 C 418.884 881.716 418.129 880.961 417.198 880.961 L 417.198 880.961 L 417.198 880.961 L 417.198 880.961 L 417.198 880.961 L 417.198 880.961 L 417.198 880.961 L 417.198 880.961 L 417.198 880.961 L 417.198 880.961 L 417.198 880.961 Z  M 418.884 872.531 C 418.884 871.6 418.129 870.845 417.198 870.845 L 391.907 870.845 C 390.976 870.845 390.221 871.6 390.221 872.531 C 390.221 873.462 390.976 874.217 391.907 874.217 L 417.198 874.217 C 418.129 874.217 418.884 873.462 418.884 872.531 L 418.884 872.531 L 418.884 872.531 L 418.884 872.531 L 418.884 872.531 L 418.884 872.531 Z  M 417.198 891.077 L 396.965 891.077 C 396.034 891.077 395.279 891.832 395.279 892.763 C 395.279 893.695 396.034 894.449 396.965 894.449 L 417.198 894.449 C 418.129 894.449 418.884 893.695 418.884 892.763 C 418.884 891.832 418.129 891.077 417.198 891.077 L 417.198 891.077 L 417.198 891.077 L 417.198 891.077 L 417.198 891.077 L 417.198 891.077 L 417.198 891.077 L 417.198 891.077 L 417.198 891.077 L 417.198 891.077 Z  M 423.244 860.729 L 410.454 860.729 C 409.523 860.729 408.768 859.974 408.768 859.043 L 408.768 846.253 L 423.244 860.729 L 423.244 860.729 L 423.244 860.729 L 423.244 860.729 L 423.244 860.729 L 423.244 860.729 L 423.244 860.729 L 423.244 860.729 L 423.244 860.729 L 423.244 860.729 L 423.244 860.729 L 423.244 860.729 L 423.244 860.729 Z  M 418.884 912.996 C 418.884 912.065 418.129 911.31 417.198 911.31 L 402.024 911.31 C 401.092 911.31 400.338 912.065 400.338 912.996 C 400.338 913.927 401.092 914.682 402.024 914.682 L 417.198 914.682 C 418.129 914.682 418.884 913.927 418.884 912.996 L 418.884 912.996 L 418.884 912.996 L 418.884 912.996 L 418.884 912.996 L 418.884 912.996 L 418.884 912.996 L 418.884 912.996 Z  M 354.815 882.647 L 366.617 882.647 C 367.548 882.647 368.303 881.892 368.303 880.961 C 368.303 880.03 367.548 879.275 366.617 879.275 L 354.815 879.275 C 353.884 879.275 353.129 880.03 353.129 880.961 C 353.129 881.892 353.884 882.647 354.815 882.647 L 354.815 882.647 L 354.815 882.647 L 354.815 882.647 L 354.815 882.647 Z  M 375.047 891.077 C 375.047 890.146 374.292 889.391 373.361 889.391 L 348.071 889.391 C 347.14 889.391 346.385 890.146 346.385 891.077 C 346.385 892.008 347.14 892.763 348.071 892.763 L 373.361 892.763 C 374.292 892.763 375.047 892.008 375.047 891.077 L 375.047 891.077 L 375.047 891.077 L 375.047 891.077 Z  M 366.617 899.508 L 354.815 899.508 C 353.884 899.508 353.129 900.262 353.129 901.194 C 353.129 902.125 353.884 902.88 354.815 902.88 L 366.617 902.88 C 367.548 902.88 368.303 902.125 368.303 901.194 C 368.303 900.262 367.548 899.508 366.617 899.508 L 366.617 899.508 L 366.617 899.508 Z  M 350.563 909.823 C 348.728 908.823 347.047 907.563 345.57 906.083 C 344.546 905.06 343.625 903.939 342.819 902.736 C 342.421 902.14 342.054 901.529 341.718 900.9 C 336.643 891.319 339.332 879.466 348.044 873.013 C 356.757 866.559 368.878 867.442 376.565 875.089 C 383.373 881.961 384.904 892.469 380.341 900.998 L 380.341 901.012 C 378.331 904.773 375.249 907.853 371.487 909.862 C 364.96 913.407 357.079 913.395 350.563 909.83 L 350.563 909.823 L 350.563 909.823 L 350.563 909.823 Z  M 373.071 912.827 C 377.183 910.637 380.593 907.329 382.908 903.286 C 383.041 903.053 383.186 902.828 383.311 902.591 C 383.376 902.47 383.427 902.344 383.49 902.222 C 383.746 901.729 383.995 901.237 384.216 900.733 C 384.437 900.23 384.611 899.75 384.791 899.255 C 384.843 899.112 384.909 898.972 384.96 898.827 C 389.247 886.358 383.238 872.688 371.152 867.418 C 359.066 862.148 344.96 867.048 338.742 878.675 C 336.786 882.338 335.766 886.428 335.776 890.582 C 335.761 899.493 340.441 907.752 348.093 912.318 C 355.745 916.885 365.236 917.082 373.071 912.837 L 373.071 912.827 L 373.071 912.827 L 373.071 912.827 Z  M 332.407 890.588 C 332.398 882.983 335.414 875.687 340.791 870.31 C 346.169 864.932 353.466 861.916 361.07 861.926 C 362.028 861.926 362.979 861.973 363.918 862.064 C 376.955 863.353 387.447 873.339 389.378 886.296 C 389.602 887.716 389.72 889.151 389.731 890.588 C 389.743 895.988 388.217 901.279 385.332 905.843 C 383.044 909.49 379.961 912.573 376.313 914.859 C 367.481 920.406 356.332 920.717 347.204 915.671 C 338.076 910.625 332.409 901.018 332.407 890.588 L 332.407 890.588 L 332.407 890.588 L 332.407 890.588 L 332.407 890.588 L 332.407 890.588 L 332.407 890.588 L 332.407 890.588 L 332.407 890.588 L 332.407 890.588 L 332.407 890.588 L 332.407 890.588 L 332.407 890.588 L 332.407 890.588 Z  M 420.57 938.286 L 356.501 938.286 C 353.708 938.286 351.443 936.021 351.443 933.228 L 351.443 921.157 C 351.547 921.191 351.657 921.213 351.763 921.246 C 352.033 921.328 352.306 921.394 352.58 921.47 C 353.21 921.638 353.846 921.807 354.488 921.933 C 354.803 921.999 355.119 922.06 355.437 922.116 C 356.079 922.229 356.727 922.317 357.378 922.392 C 357.668 922.425 357.955 922.466 358.246 922.491 C 359.181 922.571 360.121 922.623 361.07 922.623 C 366.643 922.627 372.12 921.168 376.951 918.391 L 391.859 933.284 C 393.951 935.574 397.132 936.53 400.139 935.773 C 403.147 935.016 405.497 932.669 406.256 929.662 C 407.016 926.654 406.062 923.472 403.774 921.379 L 388.873 906.469 C 391.65 901.637 393.109 896.161 393.104 890.588 C 393.104 889.521 393.053 888.461 392.95 887.411 C 392.23 880.044 388.969 873.158 383.727 867.935 C 377.731 861.907 369.572 858.529 361.07 858.554 C 360.121 858.554 359.181 858.607 358.246 858.686 C 357.955 858.711 357.666 858.751 357.376 858.785 C 356.727 858.858 356.083 858.95 355.44 859.062 C 355.12 859.118 354.801 859.179 354.483 859.245 C 353.849 859.377 353.22 859.532 352.596 859.704 C 352.316 859.78 352.036 859.847 351.753 859.931 C 351.649 859.963 351.542 859.986 351.438 860.019 L 351.438 848.927 C 351.438 846.133 353.703 843.869 356.496 843.869 L 405.396 843.869 L 405.396 859.043 C 405.396 861.836 407.66 864.101 410.454 864.101 L 425.628 864.101 L 425.628 933.228 C 425.628 936.021 423.364 938.286 420.57 938.286 L 420.57 938.286 L 420.57 938.286 L 420.57 938.286 L 420.57 938.286 L 420.57 938.286 L 420.57 938.286 L 420.57 938.286 L 420.57 938.286 L 420.57 938.286 L 420.57 938.286 L 420.57 938.286 L 420.57 938.286 L 420.57 938.286 Z  M 428.979 862.309 C 428.97 862.161 428.941 862.015 428.892 861.876 C 428.874 861.821 428.86 861.77 428.837 861.717 C 428.755 861.533 428.64 861.366 428.499 861.223 L 408.267 840.991 C 408.124 840.849 407.956 840.735 407.772 840.653 C 407.721 840.63 407.67 840.616 407.618 840.598 C 407.475 840.548 407.327 840.519 407.176 840.51 C 407.148 840.516 407.117 840.497 407.082 840.497 L 356.501 840.497 C 351.848 840.502 348.076 844.273 348.071 848.927 L 348.071 861.336 C 336.48 866.447 329 877.92 329 890.588 C 329 903.257 336.48 914.73 348.071 919.841 L 348.071 933.228 C 348.076 937.882 351.848 941.652 356.501 941.658 L 420.57 941.658 C 425.224 941.652 428.995 937.882 429 933.228 L 429 862.415 C 429 862.378 428.982 862.346 428.979 862.309 L 428.979 862.309 L 428.979 862.309 L 428.979 862.309 L 428.979 862.309 L 428.979 862.309 L 428.979 862.309 L 428.979 862.309 L 428.979 862.309 L 428.979 862.309 L 428.979 862.309 L 428.979 862.309 L 428.979 862.309 Z  M 420.57 921.426 C 419.639 921.426 418.884 922.181 418.884 923.112 L 418.884 929.856 C 418.884 930.787 418.129 931.542 417.198 931.542 L 410.454 931.542 C 409.523 931.542 408.768 932.297 408.768 933.228 C 408.768 934.159 409.523 934.914 410.454 934.914 L 417.198 934.914 C 419.992 934.914 422.256 932.649 422.256 929.856 L 422.256 923.112 C 422.256 922.181 421.501 921.426 420.57 921.426 Z " fill-rule="evenodd" fill="rgb(255,255,255)"/></svg>