<?xml version="1.0" standalone="no"?><!-- Generator: Gravit.io --><svg xmlns="http://www.w3.org/2000/svg" xmlns:xlink="http://www.w3.org/1999/xlink" style="isolation:isolate" viewBox="19.5 11.259 92.5 29.241" width="92.5" height="29.241"><g><path d="M 34.12 11.759 L 97.38 11.759 C 105.173 11.759 111.5 18.086 111.5 25.88 L 111.5 25.88 C 111.5 33.673 105.173 40 97.38 40 L 34.12 40 C 26.327 40 20 33.673 20 25.88 L 20 25.88 C 20 18.086 26.327 11.759 34.12 11.759 Z" style="stroke:none;fill:#020219;stroke-miterlimit:10;"/><path d="M 34.12 11.759 L 97.38 11.759 C 105.173 11.759 111.5 18.086 111.5 25.88 L 111.5 25.88 C 111.5 33.673 105.173 40 97.38 40 L 34.12 40 C 26.327 40 20 33.673 20 25.88 L 20 25.88 C 20 18.086 26.327 11.759 34.12 11.759 Z" style="fill:none;stroke:#FFFFFF;stroke-width:1;stroke-linecap:square;stroke-miterlimit:2;"/><path d=" M 39.365 31.827 L 39.365 33.33 L 29.551 33.33 L 29.551 32.032 L 37.129 20.547 L 29.785 20.547 L 29.785 19.053 L 39.15 19.053 L 39.15 20.352 L 31.572 31.827 L 39.365 31.827 L 39.365 31.827 Z  M 49.668 33.33 L 48.467 33.33 L 48.145 31.807 L 48.066 31.807 L 48.066 31.807 Q 47.266 32.813 46.47 33.169 L 46.47 33.169 L 46.47 33.169 Q 45.674 33.526 44.482 33.526 L 44.482 33.526 L 44.482 33.526 Q 42.891 33.526 41.987 32.705 L 41.987 32.705 L 41.987 32.705 Q 41.084 31.885 41.084 30.371 L 41.084 30.371 L 41.084 30.371 Q 41.084 27.129 46.27 26.973 L 46.27 26.973 L 48.086 26.914 L 48.086 26.25 L 48.086 26.25 Q 48.086 24.991 47.544 24.39 L 47.544 24.39 L 47.544 24.39 Q 47.002 23.789 45.811 23.789 L 45.811 23.789 L 45.811 23.789 Q 44.473 23.789 42.783 24.61 L 42.783 24.61 L 42.285 23.37 L 42.285 23.37 Q 43.076 22.94 44.019 22.696 L 44.019 22.696 L 44.019 22.696 Q 44.961 22.452 45.908 22.452 L 45.908 22.452 L 45.908 22.452 Q 47.822 22.452 48.745 23.301 L 48.745 23.301 L 48.745 23.301 Q 49.668 24.151 49.668 26.026 L 49.668 26.026 L 49.668 33.33 L 49.668 33.33 Z  M 44.805 32.188 L 44.805 32.188 L 44.805 32.188 Q 46.318 32.188 47.183 31.358 L 47.183 31.358 L 47.183 31.358 Q 48.047 30.528 48.047 29.034 L 48.047 29.034 L 48.047 28.067 L 46.426 28.135 L 46.426 28.135 Q 44.492 28.203 43.638 28.736 L 43.638 28.736 L 43.638 28.736 Q 42.783 29.268 42.783 30.391 L 42.783 30.391 L 42.783 30.391 Q 42.783 31.27 43.315 31.729 L 43.315 31.729 L 43.315 31.729 Q 43.848 32.188 44.805 32.188 Z  M 61.953 33.33 L 60.332 33.33 L 60.332 26.407 L 60.332 26.407 Q 60.332 25.098 59.736 24.453 L 59.736 24.453 L 59.736 24.453 Q 59.141 23.809 57.871 23.809 L 57.871 23.809 L 57.871 23.809 Q 56.191 23.809 55.41 24.717 L 55.41 24.717 L 55.41 24.717 Q 54.629 25.625 54.629 27.715 L 54.629 27.715 L 54.629 33.33 L 53.008 33.33 L 53.008 22.627 L 54.326 22.627 L 54.59 24.092 L 54.668 24.092 L 54.668 24.092 Q 55.166 23.301 56.064 22.867 L 56.064 22.867 L 56.064 22.867 Q 56.963 22.432 58.066 22.432 L 58.066 22.432 L 58.066 22.432 Q 60 22.432 60.977 23.365 L 60.977 23.365 L 60.977 23.365 Q 61.953 24.297 61.953 26.348 L 61.953 26.348 L 61.953 33.33 L 61.953 33.33 Z  M 72.783 33.33 L 72.568 31.895 L 72.48 31.895 L 72.48 31.895 Q 71.357 33.526 69.121 33.526 L 69.121 33.526 L 69.121 33.526 Q 67.021 33.526 65.854 32.09 L 65.854 32.09 L 65.854 32.09 Q 64.687 30.655 64.687 28.008 L 64.687 28.008 L 64.687 28.008 Q 64.687 25.362 65.859 23.897 L 65.859 23.897 L 65.859 23.897 Q 67.031 22.432 69.121 22.432 L 69.121 22.432 L 69.121 22.432 Q 71.299 22.432 72.461 24.014 L 72.461 24.014 L 72.588 24.014 L 72.52 23.243 L 72.48 22.491 L 72.48 18.135 L 74.102 18.135 L 74.102 33.33 L 72.783 33.33 L 72.783 33.33 Z  M 69.326 32.168 L 69.326 32.168 L 69.326 32.168 Q 70.986 32.168 71.733 31.265 L 71.733 31.265 L 71.733 31.265 Q 72.48 30.362 72.48 28.35 L 72.48 28.35 L 72.48 28.008 L 72.48 28.008 Q 72.48 25.733 71.724 24.761 L 71.724 24.761 L 71.724 24.761 Q 70.967 23.789 69.307 23.789 L 69.307 23.789 L 69.307 23.789 Q 67.881 23.789 67.124 24.898 L 67.124 24.898 L 67.124 24.898 Q 66.367 26.006 66.367 28.028 L 66.367 28.028 L 66.367 28.028 Q 66.367 30.078 67.119 31.123 L 67.119 31.123 L 67.119 31.123 Q 67.871 32.168 69.326 32.168 Z  M 85.322 33.33 L 84.121 33.33 L 83.799 31.807 L 83.721 31.807 L 83.721 31.807 Q 82.92 32.813 82.124 33.169 L 82.124 33.169 L 82.124 33.169 Q 81.328 33.526 80.137 33.526 L 80.137 33.526 L 80.137 33.526 Q 78.545 33.526 77.642 32.705 L 77.642 32.705 L 77.642 32.705 Q 76.738 31.885 76.738 30.371 L 76.738 30.371 L 76.738 30.371 Q 76.738 27.129 81.924 26.973 L 81.924 26.973 L 83.74 26.914 L 83.74 26.25 L 83.74 26.25 Q 83.74 24.991 83.198 24.39 L 83.198 24.39 L 83.198 24.39 Q 82.656 23.789 81.465 23.789 L 81.465 23.789 L 81.465 23.789 Q 80.127 23.789 78.437 24.61 L 78.437 24.61 L 77.939 23.37 L 77.939 23.37 Q 78.73 22.94 79.673 22.696 L 79.673 22.696 L 79.673 22.696 Q 80.615 22.452 81.562 22.452 L 81.562 22.452 L 81.562 22.452 Q 83.477 22.452 84.399 23.301 L 84.399 23.301 L 84.399 23.301 Q 85.322 24.151 85.322 26.026 L 85.322 26.026 L 85.322 33.33 L 85.322 33.33 Z  M 80.459 32.188 L 80.459 32.188 L 80.459 32.188 Q 81.973 32.188 82.837 31.358 L 82.837 31.358 L 82.837 31.358 Q 83.701 30.528 83.701 29.034 L 83.701 29.034 L 83.701 28.067 L 82.08 28.135 L 82.08 28.135 Q 80.146 28.203 79.292 28.736 L 79.292 28.736 L 79.292 28.736 Q 78.437 29.268 78.437 30.391 L 78.437 30.391 L 78.437 30.391 Q 78.437 31.27 78.97 31.729 L 78.97 31.729 L 78.97 31.729 Q 79.502 32.188 80.459 32.188 Z  M 93.545 22.432 L 93.545 22.432 L 93.545 22.432 Q 94.258 22.432 94.824 22.549 L 94.824 22.549 L 94.6 24.053 L 94.6 24.053 Q 93.936 23.907 93.428 23.907 L 93.428 23.907 L 93.428 23.907 Q 92.129 23.907 91.206 24.961 L 91.206 24.961 L 91.206 24.961 Q 90.283 26.016 90.283 27.588 L 90.283 27.588 L 90.283 33.33 L 88.662 33.33 L 88.662 22.627 L 90 22.627 L 90.186 24.61 L 90.264 24.61 L 90.264 24.61 Q 90.859 23.565 91.699 22.998 L 91.699 22.998 L 91.699 22.998 Q 92.539 22.432 93.545 22.432 Z  M 98.447 22.627 L 98.447 33.33 L 96.826 33.33 L 96.826 22.627 L 98.447 22.627 L 98.447 22.627 Z  M 96.689 19.727 L 96.689 19.727 L 96.689 19.727 Q 96.689 19.17 96.963 18.911 L 96.963 18.911 L 96.963 18.911 Q 97.236 18.653 97.646 18.653 L 97.646 18.653 L 97.646 18.653 Q 98.037 18.653 98.32 18.916 L 98.32 18.916 L 98.32 18.916 Q 98.604 19.18 98.604 19.727 L 98.604 19.727 L 98.604 19.727 Q 98.604 20.274 98.32 20.542 L 98.32 20.542 L 98.32 20.542 Q 98.037 20.811 97.646 20.811 L 97.646 20.811 L 97.646 20.811 Q 97.236 20.811 96.963 20.542 L 96.963 20.542 L 96.963 20.542 Q 96.689 20.274 96.689 19.727 Z " fill-rule="evenodd" fill="rgb(255,255,255)"/></g></svg>