<?xml version="1.0" standalone="no"?><!-- Generator: Gravit.io --><svg xmlns="http://www.w3.org/2000/svg" xmlns:xlink="http://www.w3.org/1999/xlink" style="isolation:isolate" viewBox="134.568 155.266 114.432 114.432" width="114.432" height="114.432"><g><circle vector-effect="non-scaling-stroke" cx="191.7838643546592" cy="212.4817405720347" r="57.216135645340785" fill="rgb(255,255,255)"/><g><path d="M 164.394 182.257 L 220.94 182.257 C 224.786 182.257 227.909 185.379 227.909 189.225 L 227.909 189.289 C 227.909 193.134 224.786 196.257 220.94 196.257 L 164.394 196.257 C 160.548 196.257 157.426 193.134 157.426 189.289 L 157.426 189.225 C 157.426 185.379 160.548 182.257 164.394 182.257 Z" style="stroke:none;fill:#FF002F;stroke-miterlimit:10;"/><path d="M 164.226 228.784 L 217.746 228.784 C 221.499 228.784 224.546 231.831 224.546 235.584 L 224.546 235.984 C 224.546 239.737 221.499 242.784 217.746 242.784 L 164.226 242.784 C 160.473 242.784 157.426 239.737 157.426 235.984 L 157.426 235.584 C 157.426 231.831 160.473 228.784 164.226 228.784 Z" style="stroke:none;fill:#FF9900;stroke-miterlimit:10;"/><defs><linearGradient id="_lgradient_130" x1="0" y1="0.5" x2="1" y2="0.5"><stop offset="0%" style="stop-color:#FF002F"/><stop offset="99.1304347826087%" style="stop-color:#FF9900"/></linearGradient></defs><path d="M 215.881 184.175 L 160.435 229.851 C 157.13 232.573 156.442 237.204 158.898 240.186 L 158.898 240.186 C 161.355 243.168 166.032 243.379 169.336 240.657 L 224.783 194.98 C 228.087 192.258 228.776 187.627 226.319 184.645 L 226.319 184.645 C 223.863 181.663 219.186 181.453 215.881 184.175 Z" style="stroke:none;fill:url(#_lgradient_130);stroke-miterlimit:10;"/><g><g><linearGradient id="_lgradient_131" x1="0" y1="0.5" x2="1" y2="0.5" gradientTransform="matrix(29.846,0,0,29.846,205.676,220.861)" gradientUnits="userSpaceOnUse"><stop offset="0%" stop-opacity="1" style="stop-color:rgb(255,0,255)"/><stop offset="97.82608695652173%" stop-opacity="1" style="stop-color:rgb(153,0,255)"/></linearGradient><path d=" M 220.599 250.707 C 228.841 250.707 235.522 244.025 235.522 235.784 C 235.522 227.542 228.841 220.861 220.599 220.861 C 212.357 220.861 205.676 227.542 205.676 235.784 C 205.676 244.025 212.357 250.707 220.599 250.707 Z " fill-rule="evenodd" fill="url(#_lgradient_131)"/><g><path d=" M 223.469 232.61 L 215.619 228.322 C 215.21 228.322 214.879 228.653 214.879 229.061 L 214.879 242.506 C 214.879 242.914 215.21 243.245 215.619 243.245 C 215.619 243.245 219.924 240.879 223.469 238.939 L 223.469 232.61 Z " fill-rule="evenodd" fill="rgb(255,255,255)"/><path d=" M 225.062 233.48 L 228.061 235.119 C 229.394 235.837 228.061 236.448 228.061 236.448 C 228.061 236.407 215.619 243.245 215.619 243.245 C 215.595 243.245 215.572 243.244 215.548 243.242 L 225.062 233.48 Z " fill-rule="evenodd" fill="rgb(204,204,204)"/><path d=" M 215.62 228.322 L 228.061 235.119 C 229.394 235.837 228.061 236.448 228.061 236.448 C 228.061 236.435 226.809 237.114 225.099 238.048 L 215.62 228.322 Z " fill-rule="evenodd" fill="rgb(204,204,204)"/><path d=" M 225.078 233.489 L 228.061 235.119 C 229.394 235.837 228.061 236.448 228.061 236.448 C 228.061 236.435 226.809 237.114 225.099 238.048 L 222.867 235.758 L 225.078 233.489 Z " fill-rule="evenodd" fill="rgb(255,255,255)"/></g></g></g><g><linearGradient id="_lgradient_132" x1="0" y1="0.5" x2="1" y2="0.5" gradientTransform="matrix(30,0,0,30,148.046,174.257)" gradientUnits="userSpaceOnUse"><stop offset="0%" stop-opacity="1" style="stop-color:rgb(23,189,147)"/><stop offset="98.26086956521739%" stop-opacity="1" style="stop-color:rgb(74,134,232)"/></linearGradient><circle vector-effect="non-scaling-stroke" cx="163.04555668720948" cy="189.25685315635496" r="15" fill="url(#_lgradient_132)"/><g opacity="0.1"><path d=" M 169.213 182.915 C 167.554 182.659 165.4 182.505 163.044 182.505 C 157.797 182.505 153.543 183.271 153.543 184.216 C 153.543 184.319 153.592 184.42 153.688 184.516 L 153.688 184.518 L 161.001 194.329 L 161.001 199.86 L 165.236 204.096 C 172.386 203.049 177.894 196.959 178.038 189.553 L 172.415 183.93 C 172.037 183.524 170.873 183.168 169.213 182.915 L 169.213 182.915 Z " fill="rgb(0,0,0)"/></g><g><path d=" M 172.422 184.494 L 165.109 194.305 L 165.109 197.931 L 162.859 198.988 L 161.896 199.44 L 161.001 199.86 L 161.001 194.331 L 153.688 184.518 L 172.422 184.494 Z " fill="rgb(230,233,239)"/><g opacity="0.25"><path d=" M 157.359 184.707 L 155.987 184.707 L 161.882 194.331 L 161.896 199.44 L 162.859 198.988 L 162.859 194.331 L 157.359 184.707 Z " fill="rgb(255,255,255)"/></g><path d=" M 172.549 184.217 C 172.549 184.48 172.215 184.73 171.621 184.954 C 170.092 185.53 166.827 185.928 163.045 185.928 C 159.264 185.928 155.999 185.53 154.468 184.954 C 153.874 184.73 153.542 184.48 153.542 184.217 C 153.542 183.272 157.797 182.505 163.045 182.505 C 168.294 182.505 172.549 183.272 172.549 184.217 Z " fill="rgb(217,221,230)"/><path d=" M 155.679 185.13 C 156.535 185.35 157.41 185.432 158.291 185.456 C 159.711 185.495 161.119 185.624 162.537 185.672 C 165.533 185.774 168.605 185.579 171.511 184.799 C 170.856 184.335 167.316 183.98 163.045 183.98 C 158.613 183.98 154.967 184.362 154.516 184.852 C 154.917 184.89 155.285 185.028 155.679 185.13 Z " fill="rgb(198,203,212)"/><path d=" M 163.045 182.505 C 157.797 182.505 153.542 183.272 153.542 184.217 C 153.542 184.48 153.874 184.73 154.468 184.954 C 155.999 185.53 159.264 185.928 163.045 185.928 C 166.827 185.928 170.092 185.53 171.621 184.954 C 172.215 184.73 172.549 184.48 172.549 184.217 C 172.549 183.272 168.294 182.505 163.045 182.505 Z  M 171.476 184.567 C 169.947 185.143 166.639 185.513 163.045 185.513 C 159.452 185.513 156.144 185.143 154.613 184.567 C 154.172 184.401 154.021 184.268 153.971 184.212 C 154.325 183.732 157.536 182.92 163.045 182.92 C 168.553 182.92 171.764 183.732 172.12 184.212 C 172.07 184.268 171.917 184.401 171.476 184.567 L 171.476 184.567 Z " fill="rgb(230,233,239)"/></g></g></g></g></svg>