<?xml version="1.0" standalone="no"?><!-- Generator: Gravit.io --><svg xmlns="http://www.w3.org/2000/svg" xmlns:xlink="http://www.w3.org/1999/xlink" style="isolation:isolate" viewBox="313.433 261.736 122.567 163.264" width="122.567" height="163.264"><g><g><path d=" M 413.568 327.425 L 337.43 327.425 L 337.43 355.12 C 337.43 356.36 336.428 357.365 335.191 357.365 C 333.954 357.365 332.952 356.36 332.952 355.12 L 332.952 325.18 C 332.952 323.94 333.954 322.934 335.191 322.934 L 373.26 322.934 L 373.26 313.204 C 373.26 311.963 374.262 310.958 375.499 310.958 C 376.736 310.958 377.739 311.963 377.739 313.204 L 377.739 322.934 L 415.807 322.934 C 417.044 322.934 418.047 323.94 418.047 325.18 L 418.047 355.12 C 418.047 356.36 417.044 357.365 415.807 357.365 C 414.571 357.365 413.568 356.36 413.568 355.12 L 413.568 327.425 Z  M 357.584 376.826 L 343.402 376.826 L 343.402 367.096 C 343.402 365.856 342.399 364.85 341.163 364.85 C 339.926 364.85 338.923 365.856 338.923 367.096 L 338.923 376.826 L 324.741 376.826 C 323.504 376.826 322.501 377.832 322.501 379.072 L 322.501 388.054 C 322.501 389.294 323.504 390.299 324.741 390.299 C 325.977 390.299 326.98 389.294 326.98 388.054 L 326.98 381.317 L 355.345 381.317 L 355.345 409.012 C 355.345 410.252 356.348 411.257 357.584 411.257 C 358.821 411.257 359.824 410.252 359.824 409.012 L 359.824 379.072 C 359.824 377.832 358.821 376.826 357.584 376.826 Z  M 426.258 376.826 L 412.075 376.826 L 412.075 367.096 C 412.075 365.856 411.073 364.85 409.836 364.85 C 408.599 364.85 407.596 365.856 407.596 367.096 L 407.596 376.826 L 393.414 376.826 C 392.177 376.826 391.175 377.832 391.175 379.072 L 391.175 400.03 C 391.175 401.27 392.177 402.275 393.414 402.275 C 394.651 402.275 395.653 401.27 395.653 400.03 L 395.653 381.317 L 424.018 381.317 L 424.018 388.054 C 424.018 389.294 425.021 390.299 426.258 390.299 C 427.494 390.299 428.497 389.294 428.497 388.054 L 428.497 379.072 C 428.497 377.832 427.494 376.826 426.258 376.826 Z " fill="rgb(255,255,255)"/></g><g><rect x="340" y="261.736" width="69.827" height="6.236" transform="matrix(1,0,0,1,0,0)" fill="rgb(249,32,28)"/><rect x="340" y="267.973" width="69.827" height="44.347" transform="matrix(1,0,0,1,0,0)" fill="rgb(0,0,0)"/><g><path d="M 343.742 269.358 L 359.125 269.358 C 359.66 269.358 360.095 269.793 360.095 270.329 L 360.095 282.247 C 360.095 282.782 359.66 283.217 359.125 283.217 L 343.742 283.217 C 343.206 283.217 342.772 282.782 342.772 282.247 L 342.772 270.329 C 342.772 269.793 343.206 269.358 343.742 269.358 Z" style="stroke:none;fill:#FF0048;stroke-miterlimit:10;"/><g><path d="M 364.252 270.051 L 380.882 270.051 C 381.647 270.051 382.268 270.672 382.268 271.437 L 382.268 271.437 C 382.268 272.202 381.647 272.823 380.882 272.823 L 364.252 272.823 C 363.487 272.823 362.866 272.202 362.866 271.437 L 362.866 271.437 C 362.866 270.672 363.487 270.051 364.252 270.051 Z" style="stroke:none;fill:#EBEBEB;stroke-miterlimit:10;"/><path d="M 364.252 274.902 L 400.284 274.902 C 401.049 274.902 401.67 275.523 401.67 276.288 L 401.67 276.288 C 401.67 277.053 401.049 277.674 400.284 277.674 L 364.252 277.674 C 363.487 277.674 362.866 277.053 362.866 276.288 L 362.866 276.288 C 362.866 275.523 363.487 274.902 364.252 274.902 Z" style="stroke:none;fill:#EBEBEB;stroke-miterlimit:10;"/><path d="M 364.252 279.752 L 400.284 279.752 C 401.049 279.752 401.67 280.373 401.67 281.138 L 401.67 281.138 C 401.67 281.903 401.049 282.524 400.284 282.524 L 364.252 282.524 C 363.487 282.524 362.866 281.903 362.866 281.138 L 362.866 281.138 C 362.866 280.373 363.487 279.752 364.252 279.752 Z" style="stroke:none;fill:#EBEBEB;stroke-miterlimit:10;"/></g></g><g><path d="M 343.742 286.682 L 359.125 286.682 C 359.66 286.682 360.095 287.116 360.095 287.652 L 360.095 299.57 C 360.095 300.105 359.66 300.54 359.125 300.54 L 343.742 300.54 C 343.206 300.54 342.772 300.105 342.772 299.57 L 342.772 287.652 C 342.772 287.116 343.206 286.682 343.742 286.682 Z" style="stroke:none;fill:#FF0048;stroke-miterlimit:10;"/><g><path d="M 364.252 287.374 L 380.882 287.374 C 381.647 287.374 382.268 287.995 382.268 288.76 L 382.268 288.76 C 382.268 289.525 381.647 290.146 380.882 290.146 L 364.252 290.146 C 363.487 290.146 362.866 289.525 362.866 288.76 L 362.866 288.76 C 362.866 287.995 363.487 287.374 364.252 287.374 Z" style="stroke:none;fill:#EBEBEB;stroke-miterlimit:10;"/><path d="M 364.252 292.225 L 400.284 292.225 C 401.049 292.225 401.67 292.846 401.67 293.611 L 401.67 293.611 C 401.67 294.376 401.049 294.997 400.284 294.997 L 364.252 294.997 C 363.487 294.997 362.866 294.376 362.866 293.611 L 362.866 293.611 C 362.866 292.846 363.487 292.225 364.252 292.225 Z" style="stroke:none;fill:#EBEBEB;stroke-miterlimit:10;"/><path d="M 364.252 297.075 L 400.284 297.075 C 401.049 297.075 401.67 297.696 401.67 298.461 L 401.67 298.461 C 401.67 299.226 401.049 299.847 400.284 299.847 L 364.252 299.847 C 363.487 299.847 362.866 299.226 362.866 298.461 L 362.866 298.461 C 362.866 297.696 363.487 297.075 364.252 297.075 Z" style="stroke:none;fill:#EBEBEB;stroke-miterlimit:10;"/></g></g><g><path d="M 343.904 302.619 L 358.963 302.619 C 359.587 302.619 360.095 303.126 360.095 303.751 L 360.095 312.32 L 342.772 312.32 L 342.772 303.751 C 342.772 303.126 343.279 302.619 343.904 302.619 Z" style="stroke:none;fill:#FF0048;stroke-miterlimit:10;"/><g><path d="M 364.252 304.005 L 380.882 304.005 C 381.647 304.005 382.268 304.626 382.268 305.39 L 382.268 305.39 C 382.268 306.155 381.647 306.776 380.882 306.776 L 364.252 306.776 C 363.487 306.776 362.866 306.155 362.866 305.39 L 362.866 305.39 C 362.866 304.626 363.487 304.005 364.252 304.005 Z" style="stroke:none;fill:#EBEBEB;stroke-miterlimit:10;"/><path d="M 364.252 308.855 L 400.284 308.855 C 401.049 308.855 401.67 309.476 401.67 310.241 L 401.67 310.241 C 401.67 311.006 401.049 311.627 400.284 311.627 L 364.252 311.627 C 363.487 311.627 362.866 311.006 362.866 310.241 L 362.866 310.241 C 362.866 309.476 363.487 308.855 364.252 308.855 Z" style="stroke:none;fill:#EBEBEB;stroke-miterlimit:10;"/></g></g></g><g><rect x="316.586" y="336" width="45.414" height="4.361" transform="matrix(1,0,0,1,0,0)" fill="rgb(249,32,28)"/><rect x="316.586" y="340.361" width="45.414" height="31.01" transform="matrix(1,0,0,1,0,0)" fill="rgb(0,0,0)"/><g><path d="M 319.043 344.33 L 329.001 344.33 C 329.362 344.33 329.655 344.623 329.655 344.984 L 329.655 353.366 C 329.655 353.727 329.362 354.02 329.001 354.02 L 319.043 354.02 C 318.682 354.02 318.389 353.727 318.389 353.366 L 318.389 344.984 C 318.389 344.623 318.682 344.33 319.043 344.33 Z" style="stroke:none;fill:#FF0048;stroke-miterlimit:10;"/><g><path d="M 332.392 344.814 L 343.142 344.814 C 343.658 344.814 344.076 345.233 344.076 345.749 L 344.076 345.818 C 344.076 346.334 343.658 346.753 343.142 346.753 L 332.392 346.753 C 331.877 346.753 331.458 346.334 331.458 345.818 L 331.458 345.749 C 331.458 345.233 331.877 344.814 332.392 344.814 Z" style="stroke:none;fill:#EBEBEB;stroke-miterlimit:10;"/><path d="M 332.392 348.206 L 355.76 348.206 C 356.276 348.206 356.695 348.625 356.695 349.141 L 356.695 349.21 C 356.695 349.725 356.276 350.144 355.76 350.144 L 332.392 350.144 C 331.877 350.144 331.458 349.725 331.458 349.21 L 331.458 349.141 C 331.458 348.625 331.877 348.206 332.392 348.206 Z" style="stroke:none;fill:#EBEBEB;stroke-miterlimit:10;"/><path d="M 332.392 351.598 L 355.76 351.598 C 356.276 351.598 356.695 352.017 356.695 352.532 L 356.695 352.601 C 356.695 353.117 356.276 353.536 355.76 353.536 L 332.392 353.536 C 331.877 353.536 331.458 353.117 331.458 352.601 L 331.458 352.532 C 331.458 352.017 331.877 351.598 332.392 351.598 Z" style="stroke:none;fill:#EBEBEB;stroke-miterlimit:10;"/></g></g><g><path d="M 319.043 357.443 L 329.001 357.443 C 329.362 357.443 329.655 357.736 329.655 358.097 L 329.655 366.48 C 329.655 366.841 329.362 367.134 329.001 367.134 L 319.043 367.134 C 318.682 367.134 318.389 366.841 318.389 366.48 L 318.389 358.097 C 318.389 357.736 318.682 357.443 319.043 357.443 Z" style="stroke:none;fill:#FF0048;stroke-miterlimit:10;"/><g><path d="M 332.392 357.928 L 343.142 357.928 C 343.658 357.928 344.076 358.346 344.076 358.862 L 344.076 358.931 C 344.076 359.447 343.658 359.866 343.142 359.866 L 332.392 359.866 C 331.877 359.866 331.458 359.447 331.458 358.931 L 331.458 358.862 C 331.458 358.346 331.877 357.928 332.392 357.928 Z" style="stroke:none;fill:#EBEBEB;stroke-miterlimit:10;"/><path d="M 332.392 361.319 L 355.76 361.319 C 356.276 361.319 356.695 361.738 356.695 362.254 L 356.695 362.323 C 356.695 362.839 356.276 363.258 355.76 363.258 L 332.392 363.258 C 331.877 363.258 331.458 362.839 331.458 362.323 L 331.458 362.254 C 331.458 361.738 331.877 361.319 332.392 361.319 Z" style="stroke:none;fill:#EBEBEB;stroke-miterlimit:10;"/><path d="M 332.392 364.711 L 355.76 364.711 C 356.276 364.711 356.695 365.13 356.695 365.646 L 356.695 365.715 C 356.695 366.23 356.276 366.649 355.76 366.649 L 332.392 366.649 C 331.877 366.649 331.458 366.23 331.458 365.715 L 331.458 365.646 C 331.458 365.13 331.877 364.711 332.392 364.711 Z" style="stroke:none;fill:#EBEBEB;stroke-miterlimit:10;"/></g></g></g><g><rect x="388.53" y="335.701" width="42.595" height="4.398" transform="matrix(1,0,0,1,0,0)" fill="rgb(249,32,28)"/><rect x="388.53" y="340.099" width="42.595" height="31.272" transform="matrix(1,0,0,1,0,0)" fill="rgb(0,0,0)"/><g><path d="M 390.857 343.076 L 400.152 343.076 C 400.503 343.076 400.788 343.361 400.788 343.712 L 400.788 352.212 C 400.788 352.564 400.503 352.849 400.152 352.849 L 390.857 352.849 C 390.506 352.849 390.221 352.564 390.221 352.212 L 390.221 343.712 C 390.221 343.361 390.506 343.076 390.857 343.076 Z" style="stroke:none;fill:#FF0048;stroke-miterlimit:10;"/><g><path d="M 403.387 343.565 L 413.405 343.565 C 413.907 343.565 414.314 343.972 414.314 344.474 L 414.314 344.61 C 414.314 345.112 413.907 345.519 413.405 345.519 L 403.387 345.519 C 402.886 345.519 402.479 345.112 402.479 344.61 L 402.479 344.474 C 402.479 343.972 402.886 343.565 403.387 343.565 Z" style="stroke:none;fill:#EBEBEB;stroke-miterlimit:10;"/><path d="M 403.387 346.985 L 425.24 346.985 C 425.742 346.985 426.149 347.392 426.149 347.894 L 426.149 348.031 C 426.149 348.532 425.742 348.94 425.24 348.94 L 403.387 348.94 C 402.886 348.94 402.479 348.532 402.479 348.031 L 402.479 347.894 C 402.479 347.392 402.886 346.985 403.387 346.985 Z" style="stroke:none;fill:#EBEBEB;stroke-miterlimit:10;"/><path d="M 403.387 350.406 L 425.24 350.406 C 425.742 350.406 426.149 350.813 426.149 351.314 L 426.149 351.451 C 426.149 351.953 425.742 352.36 425.24 352.36 L 403.387 352.36 C 402.886 352.36 402.479 351.953 402.479 351.451 L 402.479 351.314 C 402.479 350.813 402.886 350.406 403.387 350.406 Z" style="stroke:none;fill:#EBEBEB;stroke-miterlimit:10;"/></g></g><g><path d="M 390.857 357.292 L 400.152 357.292 C 400.503 357.292 400.788 357.577 400.788 357.928 L 400.788 366.428 C 400.788 366.779 400.503 367.064 400.152 367.064 L 390.857 367.064 C 390.506 367.064 390.221 366.779 390.221 366.428 L 390.221 357.928 C 390.221 357.577 390.506 357.292 390.857 357.292 Z" style="stroke:none;fill:#FF0048;stroke-miterlimit:10;"/><g><path d="M 403.387 357.78 L 413.405 357.78 C 413.907 357.78 414.314 358.188 414.314 358.689 L 414.314 358.826 C 414.314 359.328 413.907 359.735 413.405 359.735 L 403.387 359.735 C 402.886 359.735 402.479 359.328 402.479 358.826 L 402.479 358.689 C 402.479 358.188 402.886 357.78 403.387 357.78 Z" style="stroke:none;fill:#EBEBEB;stroke-miterlimit:10;"/><path d="M 403.387 361.201 L 425.24 361.201 C 425.742 361.201 426.149 361.608 426.149 362.11 L 426.149 362.246 C 426.149 362.748 425.742 363.155 425.24 363.155 L 403.387 363.155 C 402.886 363.155 402.479 362.748 402.479 362.246 L 402.479 362.11 C 402.479 361.608 402.886 361.201 403.387 361.201 Z" style="stroke:none;fill:#EBEBEB;stroke-miterlimit:10;"/><path d="M 403.387 364.621 L 425.24 364.621 C 425.742 364.621 426.149 365.028 426.149 365.53 L 426.149 365.667 C 426.149 366.168 425.742 366.576 425.24 366.576 L 403.387 366.576 C 402.886 366.576 402.479 366.168 402.479 365.667 L 402.479 365.53 C 402.479 365.028 402.886 364.621 403.387 364.621 Z" style="stroke:none;fill:#EBEBEB;stroke-miterlimit:10;"/></g></g></g><g><g><path d=" M 323.433 408 C 328.955 408 333.433 403.523 333.433 398 C 333.433 392.477 328.955 388 323.433 388 C 317.91 388 313.433 392.477 313.433 398 C 313.433 403.523 317.91 408 323.433 408 Z " fill-rule="evenodd" fill="rgb(0,0,0)"/><g><path d=" M 325.356 395.873 L 320.096 393 C 319.821 393 319.599 393.222 319.599 393.495 L 319.599 402.505 C 319.599 402.778 319.821 403 320.096 403 C 320.096 403 322.98 401.415 325.356 400.115 L 325.356 395.873 Z " fill-rule="evenodd" fill="rgb(255,255,255)"/><path d=" M 326.423 396.457 L 328.433 397.554 C 329.326 398.036 328.433 398.446 328.433 398.446 C 328.433 398.418 320.096 403 320.096 403 C 320.08 403 320.064 402.999 320.048 402.998 L 326.423 396.457 Z " fill-rule="evenodd" fill="rgb(204,204,204)"/><path d=" M 320.096 393 L 328.433 397.554 C 329.326 398.036 328.433 398.446 328.433 398.446 C 328.433 398.437 327.594 398.892 326.448 399.517 L 320.096 393 Z " fill-rule="evenodd" fill="rgb(204,204,204)"/><path d=" M 326.434 396.463 L 328.433 397.554 C 329.326 398.036 328.433 398.446 328.433 398.446 C 328.433 398.437 327.594 398.892 326.448 399.517 L 324.952 397.983 L 326.434 396.463 Z " fill-rule="evenodd" fill="rgb(255,255,255)"/></g></g></g><g><g><path d=" M 358 425 C 363.523 425 368 420.523 368 415 C 368 409.477 363.523 405 358 405 C 352.477 405 348 409.477 348 415 C 348 420.523 352.477 425 358 425 Z " fill-rule="evenodd" fill="rgb(0,0,0)"/><g><path d=" M 359.923 412.873 L 354.663 410 C 354.389 410 354.167 410.222 354.167 410.495 L 354.167 419.505 C 354.167 419.778 354.389 420 354.663 420 C 354.663 420 357.547 418.415 359.923 417.115 L 359.923 412.873 Z " fill-rule="evenodd" fill="rgb(255,255,255)"/><path d=" M 360.991 413.457 L 363 414.554 C 363.894 415.036 363 415.446 363 415.446 C 363 415.418 354.663 420 354.663 420 C 354.647 420 354.631 419.999 354.615 419.998 L 360.991 413.457 Z " fill-rule="evenodd" fill="rgb(204,204,204)"/><path d=" M 354.663 410 L 363 414.554 C 363.894 415.036 363 415.446 363 415.446 C 363 415.437 362.161 415.892 361.016 416.517 L 354.663 410 Z " fill-rule="evenodd" fill="rgb(204,204,204)"/><path d=" M 361.002 413.463 L 363 414.554 C 363.894 415.036 363 415.446 363 415.446 C 363 415.437 362.161 415.892 361.016 416.517 L 359.52 414.983 L 361.002 413.463 Z " fill-rule="evenodd" fill="rgb(255,255,255)"/></g></g></g><g><g><path d=" M 426 405 C 431.523 405 436 400.523 436 395 C 436 389.477 431.523 385 426 385 C 420.477 385 416 389.477 416 395 C 416 400.523 420.477 405 426 405 Z " fill-rule="evenodd" fill="rgb(0,0,0)"/><g><path d=" M 427.923 392.873 L 422.663 390 C 422.389 390 422.167 390.222 422.167 390.495 L 422.167 399.505 C 422.167 399.778 422.389 400 422.663 400 C 422.663 400 425.547 398.415 427.923 397.115 L 427.923 392.873 Z " fill-rule="evenodd" fill="rgb(255,255,255)"/><path d=" M 428.991 393.457 L 431 394.554 C 431.894 395.036 431 395.446 431 395.446 C 431 395.418 422.663 400 422.663 400 C 422.647 400 422.631 399.999 422.615 399.998 L 428.991 393.457 Z " fill-rule="evenodd" fill="rgb(204,204,204)"/><path d=" M 422.663 390 L 431 394.554 C 431.894 395.036 431 395.446 431 395.446 C 431 395.437 430.161 395.892 429.016 396.517 L 422.663 390 Z " fill-rule="evenodd" fill="rgb(204,204,204)"/><path d=" M 429.002 393.463 L 431 394.554 C 431.894 395.036 431 395.446 431 395.446 C 431 395.437 430.161 395.892 429.016 396.517 L 427.52 394.983 L 429.002 393.463 Z " fill-rule="evenodd" fill="rgb(255,255,255)"/></g></g></g><g><g><path d=" M 393 417 C 398.523 417 403 412.523 403 407 C 403 401.477 398.523 397 393 397 C 387.477 397 383 401.477 383 407 C 383 412.523 387.477 417 393 417 Z " fill-rule="evenodd" fill="rgb(0,0,0)"/><g><path d=" M 394.923 404.873 L 389.663 402 C 389.389 402 389.167 402.222 389.167 402.495 L 389.167 411.505 C 389.167 411.778 389.389 412 389.663 412 C 389.663 412 392.547 410.415 394.923 409.115 L 394.923 404.873 Z " fill-rule="evenodd" fill="rgb(255,255,255)"/><path d=" M 395.991 405.457 L 398 406.554 C 398.894 407.036 398 407.446 398 407.446 C 398 407.418 389.663 412 389.663 412 C 389.647 412 389.631 411.999 389.615 411.998 L 395.991 405.457 Z " fill-rule="evenodd" fill="rgb(204,204,204)"/><path d=" M 389.663 402 L 398 406.554 C 398.894 407.036 398 407.446 398 407.446 C 398 407.437 397.161 407.892 396.016 408.517 L 389.663 402 Z " fill-rule="evenodd" fill="rgb(204,204,204)"/><path d=" M 396.002 405.463 L 398 406.554 C 398.894 407.036 398 407.446 398 407.446 C 398 407.437 397.161 407.892 396.016 408.517 L 394.52 406.983 L 396.002 405.463 Z " fill-rule="evenodd" fill="rgb(255,255,255)"/></g></g></g></g></svg>