<?xml version="1.0" standalone="no"?><!-- Generator: Gravit.io --><svg xmlns="http://www.w3.org/2000/svg" xmlns:xlink="http://www.w3.org/1999/xlink" style="isolation:isolate" viewBox="239.007 208.011 27.987 22.982" width="27.987" height="22.982"><g><g><path d="M 239.427 215.447 L 239.428 215.446 C 239.989 214.867 240.899 214.867 241.46 215.446 L 253.783 228.176 C 254.344 228.756 254.344 229.696 253.783 230.276 L 253.783 230.276 C 253.222 230.856 252.311 230.856 251.75 230.276 L 239.427 217.546 C 238.866 216.967 238.866 216.026 239.427 215.447 Z" style="stroke:none;fill:#EBEBEB;stroke-miterlimit:10;"/><path d="M 266.573 215.447 L 266.572 215.446 C 266.011 214.867 265.101 214.867 264.54 215.446 L 251.944 228.459 C 251.383 229.038 251.383 229.979 251.944 230.558 L 251.944 230.559 C 252.505 231.138 253.416 231.138 253.976 230.559 L 266.573 217.546 C 267.134 216.967 267.134 216.026 266.573 215.447 Z" style="stroke:none;fill:#EBEBEB;stroke-miterlimit:10;"/></g><g><path d="M 241.362 208.384 L 241.363 208.383 C 241.844 207.887 242.625 207.887 243.105 208.383 L 253.672 219.298 C 254.152 219.795 254.152 220.602 253.672 221.099 L 253.671 221.099 C 253.19 221.596 252.409 221.596 251.929 221.099 L 241.362 210.184 C 240.881 209.687 240.881 208.881 241.362 208.384 Z" style="stroke:none;fill:#EBEBEB;stroke-miterlimit:10;"/><path d="M 264.638 208.384 L 264.637 208.383 C 264.156 207.887 263.375 207.887 262.895 208.383 L 252.094 219.54 C 251.613 220.037 251.613 220.844 252.094 221.341 L 252.095 221.341 C 252.575 221.838 253.356 221.838 253.837 221.341 L 264.638 210.184 C 265.119 209.687 265.119 208.881 264.638 208.384 Z" style="stroke:none;fill:#EBEBEB;stroke-miterlimit:10;"/></g></g></svg>