<?xml version="1.0" standalone="no"?><!-- Generator: Gravit.io --><svg xmlns="http://www.w3.org/2000/svg" xmlns:xlink="http://www.w3.org/1999/xlink" style="isolation:isolate" viewBox="333.664 538 86.336 67.491" width="86.336" height="67.491"><g><g><g><path d=" M 413.671 562.23 L 413.671 598.575 C 413.671 601.687 410.774 604.491 407.661 604.491 L 346.618 604.491 C 343.506 604.491 340.42 601.687 340.42 598.575 L 340.42 561.103" fill="rgb(255,255,255)" fill-opacity="0.28" vector-effect="non-scaling-stroke" stroke-width="2" stroke="rgb(255,255,255)" stroke-linejoin="round" stroke-linecap="round" stroke-miterlimit="10"/><path d=" M 387.752 603.673 L 387.752 581.057 C 387.752 578.333 390.095 576.063 392.818 576.063 L 398.595 576.063 C 401.321 576.063 403.529 578.334 403.529 581.057 L 403.529 603.673" fill="none" vector-effect="non-scaling-stroke" stroke-width="2" stroke="rgb(255,255,255)" stroke-linejoin="round" stroke-linecap="round" stroke-miterlimit="10"/><path d=" M 375.355 592.094 C 375.355 593.338 374.345 594.348 373.101 594.348 L 352.816 594.348 C 351.571 594.348 350.562 593.338 350.562 592.094 L 350.562 576.317 C 350.562 575.072 351.571 574.063 352.816 574.063 L 373.102 574.063 C 374.346 574.063 375.356 575.072 375.356 576.317 L 375.356 592.094 L 375.355 592.094 Z " fill="none" vector-effect="non-scaling-stroke" stroke-width="2" stroke="rgb(255,255,255)" stroke-linejoin="round" stroke-linecap="round" stroke-miterlimit="10"/><g><path d=" M 377.07 557.244 C 377.904 559.139 382.357 562.71 386.748 562.71 C 391.796 562.71 395.814 559.343 397.345 557.349 C 398.766 559.491 403.055 562.614 408.35 562.614 C 413.644 562.614 419 559.28 419 554.656 C 419 553.506 418.763 552.662 418.342 551.535 L 414.199 539.002 L 379.3 539.002" fill="rgb(255,255,255)" fill-opacity="0.32" vector-effect="non-scaling-stroke" stroke-width="2" stroke="rgb(255,255,255)" stroke-linejoin="round" stroke-linecap="round" stroke-miterlimit="10"/><path d=" M 379.3 539 L 376.604 539 L 339.449 539 L 335.314 551.537 C 334.894 552.664 334.664 553.442 334.664 554.593 C 334.664 559.217 340.036 562.595 345.33 562.595 C 350.625 562.595 354.944 559.507 356.365 557.366 C 357.896 559.36 361.975 562.771 367.024 562.771 C 371.414 562.771 376.238 559.134 377.07 557.239" fill="rgb(255,255,255)" fill-opacity="0.32" vector-effect="non-scaling-stroke" stroke-width="2" stroke="rgb(255,255,255)" stroke-linejoin="round" stroke-linecap="round" stroke-miterlimit="10"/></g></g></g><path d=" M 362.898 544.264 L 358.094 544.264 L 358.094 543.106 L 364.4 543.106 L 364.4 544.132 L 359.537 552.621 L 364.59 552.621 L 364.59 553.771 L 358.05 553.771 L 358.05 552.716 L 362.898 544.264 L 362.898 544.264 Z  M 370.04 551.742 L 370.04 551.742 L 370.04 551.742 Q 370.04 551.288 369.692 550.98 L 369.692 550.98 L 369.692 550.98 Q 369.344 550.672 368.362 550.255 L 368.362 550.255 L 368.362 550.255 Q 367.381 549.837 366.817 549.405 L 366.817 549.405 L 366.817 549.405 Q 366.18 548.915 366.18 547.948 L 366.18 547.948 L 366.18 547.948 Q 366.18 547.003 366.868 546.351 L 366.868 546.351 L 366.868 546.351 Q 367.557 545.699 368.692 545.699 L 368.692 545.699 L 368.692 545.699 Q 369.908 545.699 370.582 546.388 L 370.582 546.388 L 370.582 546.388 Q 371.255 547.076 371.255 548.102 L 371.255 548.102 L 369.966 548.102 L 369.966 548.102 Q 369.966 547.611 369.637 547.212 L 369.637 547.212 L 369.637 547.212 Q 369.307 546.813 368.692 546.813 L 368.692 546.813 L 368.692 546.813 Q 368.04 546.813 367.758 547.142 L 367.758 547.142 L 367.758 547.142 Q 367.476 547.472 367.476 547.904 L 367.476 547.904 L 367.476 547.904 Q 367.476 548.336 367.754 548.574 L 367.754 548.574 L 367.754 548.574 Q 368.033 548.812 368.86 549.178 L 368.86 549.178 L 368.86 549.178 Q 370.062 549.654 370.699 550.167 L 370.699 550.167 L 370.699 550.167 Q 371.336 550.68 371.336 551.639 L 371.336 551.639 L 371.336 551.639 Q 371.336 552.687 370.618 553.302 L 370.618 553.302 L 370.618 553.302 Q 369.9 553.917 368.721 553.917 L 368.721 553.917 L 368.721 553.917 Q 367.374 553.917 366.663 553.148 L 366.663 553.148 L 366.663 553.148 Q 365.953 552.379 365.953 551.397 L 365.953 551.397 L 367.249 551.397 L 367.249 551.397 Q 367.286 552.24 367.754 552.522 L 367.754 552.522 L 367.754 552.522 Q 368.223 552.804 368.721 552.804 L 368.721 552.804 L 368.721 552.804 Q 370.04 552.804 370.04 551.742 Z  M 375.928 552.665 L 375.921 553.771 L 375.921 553.771 Q 375.547 553.917 375.013 553.917 L 375.013 553.917 L 375.013 553.917 Q 374.383 553.917 373.91 553.456 L 373.91 553.456 L 373.91 553.456 Q 373.438 552.994 373.438 551.8 L 373.438 551.8 L 373.438 546.886 L 372.229 546.886 L 372.229 545.846 L 373.438 545.846 L 373.438 543.919 L 374.734 543.919 L 374.734 545.846 L 375.928 545.846 L 375.928 546.886 L 374.734 546.886 L 374.734 551.808 L 374.734 551.808 Q 374.734 552.416 374.943 552.584 L 374.943 552.584 L 374.943 552.584 Q 375.152 552.752 375.416 552.752 L 375.416 552.752 L 375.416 552.752 Q 375.694 552.752 375.928 552.665 L 375.928 552.665 L 375.928 552.665 Z  M 377.203 550.189 L 377.203 549.435 L 377.203 549.435 Q 377.203 547.582 378.089 546.64 L 378.089 546.64 L 378.089 546.64 Q 378.975 545.699 380.257 545.699 L 380.257 545.699 L 380.257 545.699 Q 381.553 545.699 382.443 546.64 L 382.443 546.64 L 382.443 546.64 Q 383.333 547.582 383.333 549.435 L 383.333 549.435 L 383.333 550.189 L 383.333 550.189 Q 383.333 552.042 382.443 552.979 L 382.443 552.979 L 382.443 552.979 Q 381.553 553.917 380.271 553.917 L 380.271 553.917 L 380.271 553.917 Q 378.982 553.917 378.093 552.979 L 378.093 552.979 L 378.093 552.979 Q 377.203 552.042 377.203 550.189 L 377.203 550.189 L 377.203 550.189 Z  M 378.499 549.435 L 378.499 550.189 L 378.499 550.189 Q 378.499 551.5 379.004 552.156 L 379.004 552.156 L 379.004 552.156 Q 379.51 552.811 380.271 552.811 L 380.271 552.811 L 380.271 552.811 Q 381.985 552.811 382.037 550.335 L 382.037 550.335 L 382.037 549.435 L 382.037 549.435 Q 382.037 548.138 381.528 547.475 L 381.528 547.475 L 381.528 547.475 Q 381.019 546.813 380.257 546.813 L 380.257 546.813 L 380.257 546.813 Q 379.502 546.813 379.001 547.475 L 379.001 547.475 L 379.001 547.475 Q 378.499 548.138 378.499 549.435 L 378.499 549.435 L 378.499 549.435 Z  M 387.691 547.003 L 387.691 547.003 L 387.691 547.003 Q 386.695 547.003 386.299 548.087 L 386.299 548.087 L 386.299 553.771 L 385.003 553.771 L 385.003 545.846 L 386.255 545.846 L 386.285 546.644 L 386.285 546.644 Q 386.805 545.699 387.757 545.699 L 387.757 545.699 L 387.757 545.699 Q 388.101 545.699 388.27 545.802 L 388.27 545.802 L 388.277 547.062 L 388.277 547.062 Q 387.991 547.003 387.691 547.003 Z  M 394.297 551.91 L 394.979 552.723 L 394.979 552.723 Q 394.656 553.177 394.045 553.547 L 394.045 553.547 L 394.045 553.547 Q 393.433 553.917 392.408 553.917 L 392.408 553.917 L 392.408 553.917 Q 390.987 553.917 390.159 553.064 L 390.159 553.064 L 390.159 553.064 Q 389.332 552.21 389.324 550.416 L 389.324 550.416 L 389.324 549.486 L 389.324 549.486 Q 389.324 547.391 390.232 546.545 L 390.232 546.545 L 390.232 546.545 Q 391.141 545.699 392.261 545.699 L 392.261 545.699 L 392.261 545.699 Q 393.748 545.699 394.393 546.659 L 394.393 546.659 L 394.393 546.659 Q 395.037 547.618 395.037 549.435 L 395.037 549.435 L 395.037 550.189 L 390.621 550.189 L 390.621 550.379 L 390.621 550.379 Q 390.621 551.646 391.1 552.229 L 391.1 552.229 L 391.1 552.229 Q 391.58 552.811 392.481 552.811 L 392.481 552.811 L 392.481 552.811 Q 393.133 552.811 393.554 552.558 L 393.554 552.558 L 393.554 552.558 Q 393.975 552.306 394.297 551.91 L 394.297 551.91 L 394.297 551.91 Z  M 392.261 546.813 L 392.261 546.813 L 392.261 546.813 Q 391.587 546.813 391.141 547.278 L 391.141 547.278 L 391.141 547.278 Q 390.694 547.743 390.628 549.083 L 390.628 549.083 L 393.741 549.083 L 393.741 548.9 L 393.741 548.9 Q 393.689 547.984 393.4 547.398 L 393.4 547.398 L 393.4 547.398 Q 393.111 546.813 392.261 546.813 Z " fill-rule="evenodd" fill="rgb(255,255,255)"/></g></svg>