<?xml version="1.0" standalone="no"?><!-- Generator: Gravit.io --><svg xmlns="http://www.w3.org/2000/svg" xmlns:xlink="http://www.w3.org/1999/xlink" style="isolation:isolate" viewBox="93 321.785 41.568 22.009" width="41.568" height="22.009"><g><defs><linearGradient id="_lgradient_134" x1="0" y1="0.5" x2="1" y2="0.5"><stop offset="0%" style="stop-color:#E83131"/><stop offset="100%" style="stop-color:#D00F0F"/></linearGradient></defs><path d="M 104.005 321.785 L 123.563 321.785 C 129.637 321.785 134.568 326.715 134.568 332.789 L 134.568 332.789 C 134.568 338.863 129.637 343.794 123.563 343.794 L 104.005 343.794 C 97.931 343.794 93 338.863 93 332.789 L 93 332.789 C 93 326.715 97.931 321.785 104.005 321.785 Z" style="stroke:none;fill:url(#_lgradient_134);stroke-miterlimit:10;"/><path d=" M 99.807 329.032 L 96.584 329.032 L 96.584 327.252 L 105.263 327.252 L 105.263 329.032 L 102.004 329.032 L 102.004 337.916 L 99.807 337.916 L 99.807 329.032 L 99.807 329.032 Z  M 113.181 337.916 L 111.189 337.916 L 111.13 337.103 L 111.13 337.103 Q 110.354 338.062 108.962 338.062 L 108.962 338.062 L 108.962 338.062 Q 107.798 338.062 107.069 337.381 L 107.069 337.381 L 107.069 337.381 Q 106.34 336.7 106.333 335.147 L 106.333 335.147 L 106.333 329.991 L 108.449 329.991 L 108.449 335.133 L 108.449 335.133 Q 108.449 335.792 108.764 336.067 L 108.764 336.067 L 108.764 336.067 Q 109.079 336.341 109.57 336.341 L 109.57 336.341 L 109.57 336.341 Q 110.647 336.341 111.057 335.587 L 111.057 335.587 L 111.057 329.991 L 113.181 329.991 L 113.181 337.916 L 113.181 337.916 Z  M 121.919 333.873 L 121.919 334.027 L 121.919 334.027 Q 121.919 335.807 121.153 336.935 L 121.153 336.935 L 121.153 336.935 Q 120.388 338.062 118.842 338.062 L 118.842 338.062 L 118.842 338.062 Q 117.553 338.062 116.784 337.074 L 116.784 337.074 L 116.689 337.916 L 114.778 337.916 L 114.778 326.666 L 116.902 326.666 L 116.902 330.694 L 116.902 330.694 Q 117.641 329.845 118.828 329.845 L 118.828 329.845 L 118.828 329.845 Q 120.388 329.845 121.153 330.98 L 121.153 330.98 L 121.153 330.98 Q 121.919 332.115 121.919 333.873 L 121.919 333.873 L 121.919 333.873 Z  M 118.293 331.559 L 118.293 331.559 L 118.293 331.559 Q 117.29 331.559 116.902 332.386 L 116.902 332.386 L 116.902 335.521 L 116.902 335.521 Q 117.29 336.349 118.308 336.349 L 118.308 336.349 L 118.308 336.349 Q 119.194 336.349 119.498 335.7 L 119.498 335.7 L 119.498 335.7 Q 119.802 335.052 119.802 333.873 L 119.802 333.873 L 119.802 333.873 Q 119.802 332.936 119.498 332.247 L 119.498 332.247 L 119.498 332.247 Q 119.194 331.559 118.293 331.559 Z  M 128.921 335.47 L 129.968 336.627 L 129.968 336.627 Q 129.587 337.169 128.811 337.616 L 128.811 337.616 L 128.811 337.616 Q 128.034 338.062 126.877 338.062 L 126.877 338.062 L 126.877 338.062 Q 125.031 338.062 123.991 336.946 L 123.991 336.946 L 123.991 336.946 Q 122.951 335.829 122.944 334.247 L 122.944 334.247 L 122.944 333.939 L 122.944 333.939 Q 122.944 332.145 123.944 330.995 L 123.944 330.995 L 123.944 330.995 Q 124.944 329.845 126.643 329.845 L 126.643 329.845 L 126.643 329.845 Q 128.349 329.845 129.243 330.914 L 129.243 330.914 L 129.243 330.914 Q 130.136 331.983 130.136 333.741 L 130.136 333.741 L 130.136 334.642 L 125.09 334.642 L 125.09 334.642 Q 125.2 335.411 125.698 335.884 L 125.698 335.884 L 125.698 335.884 Q 126.196 336.356 127.009 336.356 L 127.009 336.356 L 127.009 336.356 Q 128.217 336.356 128.921 335.47 L 128.921 335.47 L 128.921 335.47 Z  M 126.628 331.551 L 126.628 331.551 L 126.628 331.551 Q 125.954 331.551 125.588 332.005 L 125.588 332.005 L 125.588 332.005 Q 125.222 332.459 125.112 333.192 L 125.112 333.192 L 128.056 333.192 L 128.056 333.031 L 128.056 333.031 Q 128.042 332.394 127.701 331.972 L 127.701 331.972 L 127.701 331.972 Q 127.361 331.551 126.628 331.551 Z " fill-rule="evenodd" fill="rgb(255,255,255)"/></g></svg>