<?xml version="1.0" standalone="no"?><!-- Generator: Gravit.io --><svg xmlns="http://www.w3.org/2000/svg" xmlns:xlink="http://www.w3.org/1999/xlink" style="isolation:isolate" viewBox="286 17 150 152" width="150" height="152"><g><g><g><path d=" M 433.414 94 L 433.414 161.241 L 386.862 161.241 L 386.862 88.828 L 433.414 94 Z " fill="rgb(0,0,0)"/><path d=" M 335.138 88.828 L 335.138 161.241 L 288.586 161.241 L 288.586 94 L 335.138 88.828 Z " fill="rgb(0,0,0)"/><path d=" M 329.966 88.828 L 392.034 88.828 L 392.034 161.241 L 329.966 161.241 L 329.966 88.828 Z " fill="rgb(221,19,39)"/><path d=" M 353.241 122.448 L 368.759 122.448 C 370.187 122.448 371.345 123.606 371.345 125.034 L 371.345 156.069 L 350.655 156.069 L 350.655 125.034 C 350.655 123.606 351.813 122.448 353.241 122.448 Z " fill="rgb(0,0,0)"/><path d=" M 301.517 145.724 C 300.089 145.724 298.931 144.566 298.931 143.138 L 298.931 137.965 C 298.931 136.537 300.089 135.379 301.517 135.379 C 302.946 135.379 304.103 136.537 304.103 137.965 L 304.103 143.138 C 304.103 144.566 302.946 145.724 301.517 145.724 L 301.517 145.724 L 301.517 145.724 L 301.517 145.724 L 301.517 145.724 L 301.517 145.724 L 301.517 145.724 L 301.517 145.724 Z  M 353.241 112.103 C 351.813 112.103 350.655 110.946 350.655 109.517 L 350.655 104.345 C 350.655 102.916 351.813 101.759 353.241 101.759 C 354.67 101.759 355.828 102.916 355.828 104.345 L 355.828 109.517 C 355.828 110.946 354.67 112.103 353.241 112.103 L 353.241 112.103 L 353.241 112.103 L 353.241 112.103 L 353.241 112.103 L 353.241 112.103 L 353.241 112.103 L 353.241 112.103 L 353.241 112.103 L 353.241 112.103 L 353.241 112.103 L 353.241 112.103 L 353.241 112.103 L 353.241 112.103 Z  M 317.034 114.69 C 315.606 114.69 314.448 113.532 314.448 112.103 L 314.448 106.931 C 314.448 105.503 315.606 104.345 317.034 104.345 C 318.463 104.345 319.621 105.503 319.621 106.931 L 319.621 112.103 C 319.621 113.532 318.463 114.69 317.034 114.69 L 317.034 114.69 L 317.034 114.69 L 317.034 114.69 L 317.034 114.69 L 317.034 114.69 L 317.034 114.69 L 317.034 114.69 L 317.034 114.69 L 317.034 114.69 L 317.034 114.69 L 317.034 114.69 L 317.034 114.69 Z  M 301.517 114.69 C 300.089 114.69 298.931 113.532 298.931 112.103 L 298.931 106.931 C 298.931 105.503 300.089 104.345 301.517 104.345 C 302.946 104.345 304.103 105.503 304.103 106.931 L 304.103 112.103 C 304.103 113.532 302.946 114.69 301.517 114.69 L 301.517 114.69 L 301.517 114.69 L 301.517 114.69 L 301.517 114.69 L 301.517 114.69 L 301.517 114.69 L 301.517 114.69 L 301.517 114.69 L 301.517 114.69 L 301.517 114.69 L 301.517 114.69 Z  M 317.034 130.207 C 315.606 130.207 314.448 129.049 314.448 127.621 L 314.448 122.448 C 314.448 121.02 315.606 119.862 317.034 119.862 C 318.463 119.862 319.621 121.02 319.621 122.448 L 319.621 127.621 C 319.621 129.049 318.463 130.207 317.034 130.207 L 317.034 130.207 L 317.034 130.207 L 317.034 130.207 L 317.034 130.207 L 317.034 130.207 L 317.034 130.207 L 317.034 130.207 L 317.034 130.207 L 317.034 130.207 L 317.034 130.207 Z  M 368.393 112.103 C 366.965 112.103 365.807 110.946 365.807 109.517 L 365.807 104.345 C 365.807 102.916 366.965 101.759 368.393 101.759 C 369.821 101.759 370.979 102.916 370.979 104.345 L 370.979 109.517 C 370.979 110.946 369.821 112.103 368.393 112.103 L 368.393 112.103 L 368.393 112.103 L 368.393 112.103 L 368.393 112.103 L 368.393 112.103 L 368.393 112.103 L 368.393 112.103 L 368.393 112.103 L 368.393 112.103 L 368.393 112.103 L 368.393 112.103 L 368.393 112.103 L 368.393 112.103 Z  M 301.517 130.207 C 300.089 130.207 298.931 129.049 298.931 127.621 L 298.931 122.448 C 298.931 121.02 300.089 119.862 301.517 119.862 C 302.946 119.862 304.103 121.02 304.103 122.448 L 304.103 127.621 C 304.103 129.049 302.946 130.207 301.517 130.207 L 301.517 130.207 L 301.517 130.207 L 301.517 130.207 L 301.517 130.207 L 301.517 130.207 L 301.517 130.207 L 301.517 130.207 L 301.517 130.207 L 301.517 130.207 Z  M 317.034 145.724 C 315.606 145.724 314.448 144.566 314.448 143.138 L 314.448 137.965 C 314.448 136.537 315.606 135.379 317.034 135.379 C 318.463 135.379 319.621 136.537 319.621 137.965 L 319.621 143.138 C 319.621 144.566 318.463 145.724 317.034 145.724 L 317.034 145.724 L 317.034 145.724 L 317.034 145.724 L 317.034 145.724 L 317.034 145.724 L 317.034 145.724 L 317.034 145.724 L 317.034 145.724 Z  M 420.483 114.69 C 419.054 114.69 417.897 113.532 417.897 112.103 L 417.897 106.931 C 417.897 105.503 419.054 104.345 420.483 104.345 C 421.911 104.345 423.069 105.503 423.069 106.931 L 423.069 112.103 C 423.069 113.532 421.911 114.69 420.483 114.69 L 420.483 114.69 L 420.483 114.69 L 420.483 114.69 L 420.483 114.69 L 420.483 114.69 L 420.483 114.69 Z  M 404.966 114.69 C 403.537 114.69 402.379 113.532 402.379 112.103 L 402.379 106.931 C 402.379 105.503 403.537 104.345 404.966 104.345 C 406.394 104.345 407.552 105.503 407.552 106.931 L 407.552 112.103 C 407.552 113.532 406.394 114.69 404.966 114.69 L 404.966 114.69 L 404.966 114.69 L 404.966 114.69 L 404.966 114.69 L 404.966 114.69 Z  M 420.483 130.207 C 419.054 130.207 417.897 129.049 417.897 127.621 L 417.897 122.448 C 417.897 121.02 419.054 119.862 420.483 119.862 C 421.911 119.862 423.069 121.02 423.069 122.448 L 423.069 127.621 C 423.069 129.049 421.911 130.207 420.483 130.207 L 420.483 130.207 L 420.483 130.207 L 420.483 130.207 L 420.483 130.207 Z  M 404.966 130.207 C 403.537 130.207 402.379 129.049 402.379 127.621 L 402.379 122.448 C 402.379 121.02 403.537 119.862 404.966 119.862 C 406.394 119.862 407.552 121.02 407.552 122.448 L 407.552 127.621 C 407.552 129.049 406.394 130.207 404.966 130.207 L 404.966 130.207 L 404.966 130.207 L 404.966 130.207 Z  M 420.483 145.724 C 419.054 145.724 417.897 144.566 417.897 143.138 L 417.897 137.965 C 417.897 136.537 419.054 135.379 420.483 135.379 C 421.911 135.379 423.069 136.537 423.069 137.965 L 423.069 143.138 C 423.069 144.566 421.911 145.724 420.483 145.724 L 420.483 145.724 L 420.483 145.724 Z  M 404.966 145.724 C 403.537 145.724 402.379 144.566 402.379 143.138 L 402.379 137.965 C 402.379 136.537 403.537 135.379 404.966 135.379 C 406.394 135.379 407.552 136.537 407.552 137.965 L 407.552 143.138 C 407.552 144.566 406.394 145.724 404.966 145.724 L 404.966 145.724 Z  M 366.617 145.724 C 365.188 145.724 364.03 144.566 364.03 143.138 L 364.03 137.965 C 364.03 136.537 365.188 135.379 366.617 135.379 C 368.045 135.379 369.203 136.537 369.203 137.965 L 369.203 143.138 C 369.203 144.566 368.045 145.724 366.617 145.724 Z " fill-rule="evenodd" fill="rgb(255,255,255)"/><linearGradient id="_lgradient_121" x1="0.8714132475194434" y1="-1.1951550907303146" x2="0.4242424242424235" y2="3.7535353535353586" gradientTransform="matrix(150,0,0,12.931,286,156.069)" gradientUnits="userSpaceOnUse"><stop offset="1.7391304347826086%" stop-opacity="1" style="stop-color:rgb(23,23,23)"/><stop offset="97.82608695652173%" stop-opacity="1" style="stop-color:rgb(0,0,0)"/></linearGradient><path d=" M 433.414 156.069 L 288.586 156.069 C 287.158 156.069 286 157.227 286 158.655 L 286 163.828 C 286 165.256 287.158 166.414 288.586 166.414 L 324.793 166.414 C 324.793 167.842 325.951 169 327.379 169 L 394.621 169 C 396.049 169 397.207 167.842 397.207 166.414 L 433.414 166.414 C 434.842 166.414 436 165.256 436 163.828 L 436 158.655 C 436 157.227 434.842 156.069 433.414 156.069 Z " fill="url(#_lgradient_121)"/><path d=" M 427.078 81.353 C 426.204 79.596 424.411 78.484 422.448 78.483 L 402.379 78.483 L 402.379 73.31 L 388.388 59.319 C 387.415 58.343 386.094 57.794 384.716 57.793 L 334.983 57.793 C 333.443 57.785 331.981 58.469 331 59.655 L 319.621 73.31 L 319.621 78.483 L 299.552 78.483 C 297.589 78.484 295.796 79.596 294.922 81.353 L 288.586 94 L 433.414 94 L 427.078 81.353 Z " fill="rgb(21,21,21)"/><path d=" M 402.379 73.31 L 402.379 81.069 C 402.379 82.497 401.221 83.655 399.793 83.655 L 322.207 83.655 C 320.779 83.655 319.621 82.497 319.621 81.069 L 319.621 73.31 L 402.379 73.31 Z " fill="rgb(0,0,0)"/><path d=" M 324.793 83.655 L 397.207 83.655 L 397.207 94 L 324.793 94 L 324.793 83.655 Z " fill="rgb(13,12,12)"/><linearGradient id="_lgradient_122" x1="1.2530773249555176" y1="-0.39057431718150615" x2="-0.2002110760410809" y2="1.1391708552424153" gradientTransform="matrix(72.458,0,0,23.276,324.749,19)" gradientUnits="userSpaceOnUse"><stop offset="0%" stop-opacity="1" style="stop-color:rgb(225,43,38)"/><stop offset="100%" stop-opacity="1" style="stop-color:rgb(0,0,0)"/></linearGradient><path d=" M 397.207 30.638 C 397.24 31.821 396.442 32.866 395.293 33.147 L 392.034 34.026 L 384.276 36.121 L 361.647 42.198 C 361.222 42.302 360.778 42.302 360.353 42.198 L 337.724 36.121 L 326.707 33.147 C 325.556 32.858 324.749 31.824 324.749 30.638 C 324.749 29.452 325.556 28.418 326.707 28.129 L 360.353 19.078 C 360.778 18.974 361.222 18.974 361.647 19.078 L 392.034 27.25 L 395.293 28.129 C 396.442 28.41 397.24 29.455 397.207 30.638 Z " fill="url(#_lgradient_122)" vector-effect="non-scaling-stroke" stroke-width="1" stroke="rgb(255,255,255)" stroke-linejoin="miter" stroke-linecap="butt" stroke-miterlimit="4"/><path d=" M 399.147 48.871 C 398.671 49.593 397.865 50.03 397 50.034 C 396.492 50.04 395.994 49.887 395.578 49.595 C 393.361 48.134 392.029 45.655 392.034 43 L 392.034 34.026 L 395.293 33.147 C 396.442 32.866 397.24 31.821 397.207 30.638 L 397.207 43 C 397.207 43.927 397.674 44.792 398.448 45.302 C 399.018 45.679 399.413 46.269 399.544 46.94 C 399.676 47.611 399.532 48.306 399.147 48.871 Z " fill="rgb(237,193,0)"/></g></g><g><g><path d=" M 355.648 58.616 L 369.676 51.359 L 355.648 44.042 L 355.648 58.616 L 355.648 58.616 Z " fill="rgb(255,255,255)"/><g opacity="0.12"><path d=" M 355.648 44.042 L 367.953 52.251 L 369.676 51.359 L 355.648 44.042 L 355.648 44.042 Z " fill="rgb(66,0,0)"/></g><linearGradient id="_lgradient_123" x1="0" y1="0.5" x2="6.123233995736766e-17" y2="1.5" gradientTransform="matrix(51.894,0,0,36.488,335.053,33.642)" gradientUnits="userSpaceOnUse"><stop offset="8.68053889e-7%" stop-opacity="1" style="stop-color:rgb(229,45,39)"/><stop offset="100%" stop-opacity="1" style="stop-color:rgb(191,23,29)"/></linearGradient><path d=" M 386.4 41.508 C 386.4 41.508 385.893 37.94 384.333 36.359 C 382.367 34.291 380.159 34.291 379.125 34.17 C 371.891 33.642 361.01 33.642 361.01 33.642 L 360.99 33.642 C 360.99 33.642 350.109 33.642 342.834 34.17 C 341.821 34.291 339.612 34.291 337.626 36.359 C 336.086 37.94 335.58 41.508 335.58 41.508 C 335.58 41.508 335.053 45.724 335.053 49.92 L 335.053 53.853 C 335.053 58.049 335.58 62.245 335.58 62.245 C 335.58 62.245 336.086 65.813 337.647 67.394 C 339.612 69.461 342.206 69.401 343.361 69.603 C 347.515 70.009 360.99 70.13 360.99 70.13 C 360.99 70.13 371.891 70.11 379.146 69.583 C 380.159 69.461 382.367 69.461 384.353 67.394 C 385.914 65.813 386.42 62.245 386.42 62.245 C 386.42 62.245 386.947 58.049 386.947 53.853 L 386.947 49.92 C 386.927 45.724 386.4 41.508 386.4 41.508 L 386.4 41.508 Z  M 355.64 58.616 L 355.64 44.042 L 369.662 51.359 L 355.64 58.616 L 355.64 58.616 Z " fill="url(#_lgradient_123)"/></g></g></g></svg>