<?xml version="1.0" encoding="UTF-8" standalone="no"?><!-- Generator: Gravit.io --><svg xmlns="http://www.w3.org/2000/svg" xmlns:xlink="http://www.w3.org/1999/xlink" style="isolation:isolate" viewBox="282 0 65 65" width="65pt" height="65pt"><linearGradient id="_lgradient_3" x1="0.5000000000000002" y1="1" x2="0.5000000000000003" y2="0" gradientTransform="matrix(65,0,0,65,282,0)" gradientUnits="userSpaceOnUse"><stop offset="0%" stop-opacity="1" style="stop-color:rgb(255,153,0)"/><stop offset="97.82608695652173%" stop-opacity="1" style="stop-color:rgb(255,0,255)"/></linearGradient><path d=" M 332.741 30.382 C 336.015 30.165 338.613 27.44 338.613 24.113 C 338.613 21.336 336.802 18.978 334.301 18.147 L 336.516 17.593 L 336.516 9.665 L 333.983 9.033 L 335.326 6.796 L 329.72 1.19 L 327.483 2.533 L 326.851 0 L 318.923 0 L 318.291 2.533 L 316.054 1.19 L 312.24 5.004 C 310.266 4.482 308.213 4.194 306.113 4.194 C 292.817 4.194 282 15.011 282 28.306 L 282 40.595 L 285.211 41.665 L 286.285 53.468 L 294.581 53.468 L 294.581 65 L 296.677 65 L 296.677 53.406 C 300.793 52.949 304.116 49.834 304.889 45.821 C 306.026 47.067 307.582 47.921 309.336 48.155 L 309.575 51.024 L 303.74 55.107 C 303.226 54.738 302.6 54.516 301.919 54.516 C 300.185 54.516 298.774 55.927 298.774 57.661 C 298.774 59.395 300.185 60.806 301.919 60.806 C 303.653 60.806 305.065 59.395 305.065 57.661 C 305.065 57.371 305.012 57.095 304.939 56.828 L 309.777 53.442 L 310.065 56.897 C 308.974 57.391 308.21 58.484 308.21 59.758 C 308.21 61.492 309.621 62.903 311.355 62.903 C 313.089 62.903 314.5 61.492 314.5 59.758 C 314.5 58.302 313.5 57.085 312.155 56.728 L 311.439 48.129 C 314.948 47.582 317.645 44.548 317.645 40.887 C 317.645 36.84 314.353 33.548 310.306 33.548 C 308.752 33.548 307.31 34.038 306.122 34.866 L 298.618 29.237 C 298.71 28.942 298.774 28.633 298.774 28.306 C 298.774 26.572 297.363 25.161 295.629 25.161 C 293.895 25.161 292.484 26.572 292.484 28.306 C 292.484 30.04 293.895 31.452 295.629 31.452 C 296.273 31.452 296.871 31.256 297.37 30.922 L 300.109 32.976 L 295.74 37.968 C 295.381 37.826 294.991 37.742 294.581 37.742 C 292.847 37.742 291.435 39.153 291.435 40.887 C 291.435 42.621 292.847 44.032 294.581 44.032 C 296.315 44.032 297.726 42.621 297.726 40.887 C 297.726 40.329 297.568 39.813 297.312 39.358 L 301.79 34.238 L 304.57 36.322 C 303.57 37.577 302.968 39.161 302.968 40.887 L 302.968 44.032 C 302.968 48.079 299.676 51.371 295.629 51.371 L 288.199 51.371 L 287.176 40.109 L 284.097 39.083 L 284.097 28.306 C 284.097 16.166 293.973 6.29 306.113 6.29 C 314.22 6.29 321.65 10.767 325.477 17.823 L 311.355 17.823 L 311.355 21.067 L 300.871 22.116 L 300.871 26.11 L 311.355 27.158 L 311.355 30.403 L 320.034 30.403 L 324.393 43.478 C 322.95 45.634 321.168 47.513 319.063 49.045 L 316.597 50.837 L 316.597 65 L 318.694 65 L 318.694 51.905 L 320.295 50.74 C 322.169 49.377 323.815 47.768 325.216 45.946 L 330.373 61.416 C 331.087 63.56 333.086 65 335.345 65 L 347 65 L 347 52.419 L 340.407 52.419 L 332.741 30.382 Z  M 301.919 58.71 C 301.342 58.71 300.871 58.239 300.871 57.661 C 300.871 57.084 301.342 56.613 301.919 56.613 C 302.497 56.613 302.968 57.084 302.968 57.661 C 302.968 58.239 302.497 58.71 301.919 58.71 Z  M 294.581 41.935 C 294.003 41.935 293.532 41.465 293.532 40.887 C 293.532 40.309 294.003 39.839 294.581 39.839 C 295.158 39.839 295.629 40.309 295.629 40.887 C 295.629 41.465 295.158 41.935 294.581 41.935 Z  M 311.355 60.806 C 310.777 60.806 310.306 60.336 310.306 59.758 C 310.306 59.18 310.777 58.71 311.355 58.71 C 311.933 58.71 312.403 59.18 312.403 59.758 C 312.403 60.336 311.933 60.806 311.355 60.806 Z  M 295.629 29.355 C 295.051 29.355 294.581 28.884 294.581 28.306 C 294.581 27.729 295.051 27.258 295.629 27.258 C 296.207 27.258 296.677 27.729 296.677 28.306 C 296.677 28.884 296.207 29.355 295.629 29.355 Z  M 310.306 35.645 C 313.197 35.645 315.548 37.997 315.548 40.887 C 315.548 43.777 313.197 46.129 310.306 46.129 C 307.416 46.129 305.065 43.777 305.065 40.887 C 305.065 37.997 307.416 35.645 310.306 35.645 Z  M 316.378 3.83 L 318.64 5.188 L 319.921 4.662 L 320.561 2.097 L 325.213 2.097 L 325.854 4.661 L 327.135 5.187 L 329.398 3.829 L 332.687 7.119 L 331.329 9.381 L 331.855 10.662 L 334.419 11.303 L 334.419 15.955 L 332.376 16.466 L 331.816 16.682 L 331.349 17.823 L 328.899 17.823 C 329.75 16.603 330.226 15.148 330.226 13.629 C 330.226 9.582 326.934 6.29 322.887 6.29 C 321.33 6.29 319.829 6.785 318.58 7.691 C 317.286 6.908 315.924 6.238 314.499 5.707 L 316.378 3.83 Z  M 320.515 8.978 C 321.245 8.605 322.05 8.387 322.887 8.387 C 325.778 8.387 328.129 10.739 328.129 13.629 C 328.129 14.707 327.793 15.739 327.193 16.607 C 325.509 13.579 323.22 10.992 320.515 8.978 Z  M 321.839 19.919 L 321.839 20.968 C 321.839 21.545 321.368 22.016 320.79 22.016 L 313.452 22.016 L 313.452 19.919 L 321.839 19.919 Z  M 302.968 24.212 L 302.968 24.013 L 311.355 23.175 L 311.355 25.051 L 302.968 24.212 Z  M 313.452 24.113 L 320.79 24.113 C 322.524 24.113 323.935 22.702 323.935 20.968 L 323.935 19.919 L 332.323 19.919 C 334.635 19.919 336.516 21.8 336.516 24.113 C 336.516 26.426 334.635 28.306 332.323 28.306 L 313.452 28.306 L 313.452 24.113 Z  M 330.529 30.403 L 337.272 49.79 L 330.455 55.034 L 329.234 51.371 L 330.518 51.371 C 332.091 51.371 333.371 50.091 333.371 48.518 C 333.371 48.211 333.322 47.907 333.224 47.616 L 329.534 36.547 C 329.146 35.381 328.059 34.597 326.829 34.597 L 323.643 34.597 L 322.245 30.403 L 330.529 30.403 Z  M 324.342 36.694 L 326.829 36.694 C 327.155 36.694 327.442 36.901 327.546 37.21 L 331.236 48.279 C 331.261 48.357 331.274 48.438 331.274 48.518 C 331.274 48.936 330.936 49.274 330.518 49.274 L 328.535 49.274 L 324.342 36.694 Z  M 332.361 60.753 L 331.157 57.139 L 337.998 51.876 L 338.426 53.108 C 338.719 53.95 339.515 54.516 340.407 54.516 L 341.535 54.516 L 337.019 62.903 L 335.345 62.903 C 333.99 62.903 332.79 62.039 332.361 60.753 Z  M 344.903 62.903 L 339.4 62.903 L 343.916 54.516 L 344.903 54.516 L 344.903 62.903 Z  M 324.984 22.016 L 327.081 22.016 L 327.081 24.113 L 324.984 24.113 L 324.984 22.016 Z  M 329.177 22.016 L 331.274 22.016 L 331.274 24.113 L 329.177 24.113 L 329.177 22.016 Z  M 301.162 11.183 C 296.73 12.466 293.008 15.384 290.681 19.396 L 288.867 18.345 C 291.466 13.862 295.626 10.603 300.578 9.169 L 301.162 11.183 Z  M 305.123 10.511 C 304.459 10.548 303.792 10.622 303.142 10.731 L 302.794 8.663 C 303.519 8.541 304.265 8.458 305.006 8.416 L 305.123 10.511 Z  M 310.306 44.032 C 312.04 44.032 313.452 42.621 313.452 40.887 C 313.452 39.153 312.04 37.742 310.306 37.742 C 308.572 37.742 307.161 39.153 307.161 40.887 C 307.161 42.621 308.572 44.032 310.306 44.032 Z  M 310.306 39.839 C 310.884 39.839 311.355 40.309 311.355 40.887 C 311.355 41.465 310.884 41.935 310.306 41.935 C 309.729 41.935 309.258 41.465 309.258 40.887 C 309.258 40.309 309.729 39.839 310.306 39.839 Z " fill="url(#_lgradient_3)"/></svg>