<?xml version="1.0" encoding="UTF-8" standalone="no"?><!-- Generator: Gravit.io --><svg xmlns="http://www.w3.org/2000/svg" xmlns:xlink="http://www.w3.org/1999/xlink" style="isolation:isolate" viewBox="65.75 68.5 164 164" width="164pt" height="164pt"><linearGradient id="_lgradient_9" x1="0.5" y1="1.0000000000000002" x2="0.5000000000000001" y2="0" gradientTransform="matrix(150,0,0,150,72.75,75.5)" gradientUnits="userSpaceOnUse"><stop offset="0%" stop-opacity="1" style="stop-color:rgb(255,153,0)"/><stop offset="97.3913043478261%" stop-opacity="1" style="stop-color:rgb(255,0,255)"/></linearGradient><path d=" M 140.492 150.5 C 136.49 150.5 133.234 153.756 133.234 157.758 C 133.234 161.76 136.49 165.016 140.492 165.016 C 144.494 165.016 147.75 161.76 147.75 157.758 C 147.75 153.756 144.494 150.5 140.492 150.5 Z  M 140.492 160.177 C 139.156 160.177 138.073 159.094 138.073 157.758 C 138.073 156.423 139.156 155.339 140.492 155.339 C 141.827 155.339 142.911 156.423 142.911 157.758 C 142.911 159.094 141.827 160.177 140.492 160.177 Z  M 142.911 210.984 L 147.75 210.984 L 147.75 215.823 L 142.911 215.823 L 142.911 210.984 Z  M 147.75 206.145 L 142.911 206.145 L 142.911 201.306 L 147.75 201.306 L 147.75 206.145 Z  M 102.854 102.619 L 105.547 106.637 C 103.573 107.96 101.695 109.468 99.975 111.118 L 96.629 107.624 C 98.552 105.783 100.645 104.099 102.854 102.619 Z  M 143.719 97.463 L 142.103 102.023 C 131.093 98.121 118.14 99.236 107.835 105.215 L 105.406 101.029 C 116.927 94.349 131.388 93.091 143.719 97.463 Z  M 214.374 99.147 L 217.877 93.304 L 204.944 80.368 L 199.101 83.873 C 197.739 83.198 196.314 82.613 194.84 82.119 L 193.188 75.5 L 174.893 75.5 L 173.238 82.122 C 171.767 82.615 170.342 83.201 168.977 83.876 L 163.135 80.37 L 152.717 90.79 C 145.183 87.127 136.822 85.177 128.395 85.177 C 97.71 85.177 72.75 110.14 72.75 140.823 L 72.75 169.18 L 80.16 171.65 L 82.638 198.887 L 101.782 198.887 L 101.782 225.5 L 106.621 225.5 L 106.621 198.744 C 117.491 197.537 125.976 188.302 125.976 177.113 L 125.976 174.694 L 121.137 174.694 L 121.137 177.113 C 121.137 186.449 113.538 194.048 104.202 194.048 L 87.056 194.048 L 84.694 168.06 L 77.589 165.691 L 77.589 140.823 C 77.589 131.924 79.904 123.563 83.94 116.283 C 93.99 119.878 98.528 127.717 103.316 135.986 C 108.094 144.239 113.04 152.752 123.588 157.165 C 123.581 157.364 123.556 157.557 123.556 157.758 C 123.556 167.094 131.156 174.694 140.492 174.694 C 141.682 174.694 142.844 174.568 143.966 174.331 L 158.298 188.663 C 158.291 188.668 158.286 188.673 158.279 188.677 L 152.589 192.817 L 152.589 225.5 L 157.427 225.5 L 157.427 195.28 L 161.122 192.592 C 174.094 183.159 182.25 168.795 183.765 152.922 L 193.185 152.922 L 194.84 146.3 C 196.311 145.806 197.736 145.221 199.101 144.546 L 204.944 148.052 L 217.877 135.115 L 214.374 129.273 C 215.049 127.91 215.635 126.485 216.128 125.012 L 222.75 123.357 L 222.75 105.062 L 216.128 103.407 C 215.637 101.936 215.049 100.511 214.374 99.147 Z  M 128.395 157.758 C 128.395 151.088 133.822 145.661 140.492 145.661 C 147.162 145.661 152.589 151.088 152.589 157.758 C 152.589 164.428 147.162 169.855 140.492 169.855 C 133.822 169.855 128.395 164.428 128.395 157.758 Z  M 162.082 185.605 L 148.909 172.431 C 151.507 170.934 153.668 168.773 155.165 166.175 L 168.184 179.194 C 166.355 181.49 164.313 183.633 162.082 185.605 Z  M 171.041 175.209 L 157.065 161.232 C 157.302 160.11 157.427 158.948 157.427 157.758 C 157.427 148.419 149.828 140.823 140.492 140.823 C 133.094 140.823 126.801 145.601 124.502 152.227 C 116.117 148.31 111.898 141.147 107.504 133.56 C 102.612 125.111 97.546 116.414 86.526 112.102 C 95.693 98.779 111.034 90.016 128.395 90.016 C 136.464 90.016 144.467 91.964 151.594 95.627 L 153.706 99.147 C 153.031 100.509 152.446 101.934 151.952 103.407 L 145.331 105.062 L 145.331 123.357 L 151.952 125.012 C 152.444 126.483 153.029 127.908 153.706 129.273 L 150.203 135.115 L 163.137 148.052 L 168.98 144.546 C 170.342 145.221 171.767 145.806 173.24 146.3 L 174.893 152.919 L 178.916 152.919 C 178.072 160.971 175.345 168.573 171.041 175.209 Z  M 217.911 119.578 L 212.289 120.984 L 211.902 122.319 C 211.299 124.393 210.486 126.367 209.485 128.189 L 208.815 129.406 L 211.788 134.363 L 204.194 141.957 L 199.236 138.984 L 198.017 139.654 C 196.2 140.656 194.226 141.469 192.148 142.071 L 190.815 142.458 L 189.409 148.081 L 178.672 148.081 L 177.266 142.458 L 175.931 142.069 C 173.855 141.464 171.878 140.653 170.061 139.652 L 168.842 138.981 L 163.885 141.955 L 156.29 134.36 L 159.264 129.403 L 158.594 128.186 C 157.592 126.365 156.779 124.39 156.177 122.317 L 155.79 120.981 L 150.169 119.578 L 150.169 108.841 L 155.792 107.435 L 156.179 106.1 C 156.781 104.027 157.594 102.052 158.596 100.231 L 159.266 99.014 L 156.293 94.056 L 163.887 86.462 L 168.844 89.435 L 170.064 88.765 C 171.881 87.764 173.855 86.951 175.933 86.348 L 177.266 85.961 L 178.672 80.339 L 189.409 80.339 L 190.815 85.961 L 192.15 86.351 C 194.226 86.956 196.202 87.766 198.019 88.768 L 199.239 89.438 L 204.196 86.465 L 211.79 94.059 L 208.817 99.016 L 209.487 100.233 C 210.489 102.055 211.302 104.029 211.904 106.102 L 212.291 107.438 L 217.911 108.841 L 217.911 119.578 Z  M 184.04 90.016 C 170.7 90.016 159.847 100.869 159.847 114.21 C 159.847 127.55 170.7 138.403 184.04 138.403 C 197.381 138.403 208.234 127.55 208.234 114.21 C 208.234 100.869 197.381 90.016 184.04 90.016 Z  M 184.04 133.565 C 173.369 133.565 164.685 124.881 164.685 114.21 C 164.685 103.538 173.369 94.855 184.04 94.855 C 194.712 94.855 203.395 103.538 203.395 114.21 C 203.395 124.881 194.712 133.565 184.04 133.565 Z  M 184.04 99.694 C 176.035 99.694 169.524 106.204 169.524 114.21 C 169.524 122.215 176.035 128.726 184.04 128.726 C 192.046 128.726 198.556 122.215 198.556 114.21 C 198.556 106.204 192.046 99.694 184.04 99.694 Z  M 184.04 123.887 C 178.703 123.887 174.363 119.547 174.363 114.21 C 174.363 108.873 178.703 104.532 184.04 104.532 C 189.377 104.532 193.718 108.873 193.718 114.21 C 193.718 119.547 189.377 123.887 184.04 123.887 Z " fill="url(#_lgradient_9)"/></svg>