<?xml version="1.0" encoding="UTF-8" standalone="no"?><!-- Generator: Gravit.io --><svg xmlns="http://www.w3.org/2000/svg" xmlns:xlink="http://www.w3.org/1999/xlink" style="isolation:isolate" viewBox="0 0 65 65" width="65pt" height="65pt"><linearGradient id="_lgradient_0" x1="0.5000000000000002" y1="1.0000000000000002" x2="0.5000000000000003" y2="0" gradientTransform="matrix(65,0,0,65,0,0)" gradientUnits="userSpaceOnUse"><stop offset="0%" stop-opacity="1" style="stop-color:rgb(255,153,0)"/><stop offset="98.69565217391305%" stop-opacity="1" style="stop-color:rgb(255,0,255)"/></linearGradient><path d=" M 32.5 20.968 C 29.61 20.968 27.258 23.319 27.258 26.21 C 27.258 29.1 29.61 31.452 32.5 31.452 C 35.39 31.452 37.742 29.1 37.742 26.21 C 37.742 23.319 35.39 20.968 32.5 20.968 Z  M 32.5 29.355 C 30.766 29.355 29.355 27.944 29.355 26.21 C 29.355 24.476 30.766 23.065 32.5 23.065 C 34.234 23.065 35.645 24.476 35.645 26.21 C 35.645 27.944 34.234 29.355 32.5 29.355 Z  M 42.433 20.371 L 42.073 19.759 L 41.37 19.868 C 41.211 19.892 41.053 19.919 40.887 19.919 C 39.153 19.919 37.742 18.508 37.74 16.836 L 37.784 15.939 L 37.132 15.652 C 35.66 15.005 34.102 14.677 32.5 14.677 C 26.142 14.677 20.968 19.851 20.968 26.21 C 20.968 32.568 26.142 37.742 32.5 37.742 C 38.858 37.742 44.032 32.568 44.032 26.21 C 44.032 24.164 43.48 22.145 42.433 20.371 Z  M 32.5 35.645 C 27.298 35.645 23.065 31.413 23.065 26.21 C 23.065 21.007 27.298 16.774 32.5 16.774 C 33.589 16.774 34.653 16.96 35.673 17.326 C 35.951 19.958 38.183 22.016 40.887 22.016 L 40.943 22.016 C 41.594 23.32 41.935 24.757 41.935 26.21 C 41.935 31.413 37.702 35.645 32.5 35.645 Z  M 62.903 42.984 L 60.806 42.984 L 60.806 49.274 L 58.71 49.274 L 58.71 40.887 L 56.613 40.887 L 56.613 49.274 L 54.516 49.274 L 54.516 45.081 L 52.419 45.081 L 52.419 49.274 L 50.323 49.274 L 50.323 42.984 L 48.226 42.984 L 48.226 49.274 L 46.731 49.274 L 41.675 40.607 C 47.943 38.601 53.443 34.411 56.957 28.7 C 57.418 27.95 57.661 27.089 57.661 26.21 C 57.661 25.33 57.418 24.469 56.957 23.719 C 56.382 22.785 55.748 21.897 55.073 21.047 C 58.659 19.103 60.806 14.704 60.806 12.581 L 58.71 12.581 C 58.71 13.808 56.928 17.946 53.672 19.41 C 52.811 18.485 51.887 17.627 50.913 16.831 C 54.441 14.881 56.613 10.509 56.613 8.387 L 54.516 8.387 C 54.516 9.677 52.501 14.168 48.994 15.401 C 48.004 14.723 46.972 14.109 45.905 13.562 C 49.468 11.485 51.371 7.067 51.371 5.242 L 49.274 5.242 C 49.274 6.631 47.095 11.403 43.31 12.392 C 40.142 11.157 36.742 10.484 33.272 10.484 L 31.728 10.484 C 29.698 10.484 27.693 10.724 25.741 11.161 L 20.59 0 L 0 0 L 0 2.097 L 19.248 2.097 L 23.682 11.705 C 17.267 13.666 11.623 17.9 8.042 23.72 C 7.582 24.469 7.339 25.33 7.339 26.21 C 7.339 27.089 7.582 27.95 8.043 28.701 C 9.228 30.627 10.645 32.373 12.235 33.928 C 7.243 36.965 4.194 42.316 4.194 48.226 C 4.194 57.475 11.719 65 20.968 65 C 30.217 65 37.742 57.475 37.742 48.226 C 37.742 46.001 37.286 43.789 36.427 41.742 C 37.493 41.618 38.546 41.428 39.584 41.183 L 45.527 51.371 L 65 51.371 L 65 49.274 L 62.903 49.274 L 62.903 42.984 Z  M 55.17 24.817 C 55.428 25.237 55.565 25.718 55.565 26.21 C 55.565 26.701 55.428 27.183 55.171 27.601 C 52.286 32.289 47.955 35.872 42.965 37.916 C 46.185 35.034 48.226 30.861 48.226 26.21 C 48.226 21.558 46.185 17.385 42.964 14.503 C 47.954 16.548 52.286 20.13 55.17 24.817 Z  M 29.355 48.226 C 29.355 52.85 25.592 56.613 20.968 56.613 C 16.343 56.613 12.581 52.85 12.581 48.226 C 12.581 43.601 16.343 39.839 20.968 39.839 C 21.043 39.839 21.119 39.845 21.192 39.849 L 21.236 39.852 C 22.627 40.423 24.068 40.871 25.54 41.212 C 27.928 42.772 29.355 45.382 29.355 48.226 Z  M 31.398 49.274 L 35.592 49.274 C 35.36 52.533 34.066 55.495 32.047 57.823 L 29.08 54.856 C 30.352 53.303 31.188 51.379 31.398 49.274 Z  M 10.537 49.274 C 10.747 51.379 11.584 53.303 12.855 54.856 L 9.888 57.823 C 7.869 55.495 6.575 52.532 6.344 49.274 L 10.537 49.274 Z  M 14.338 56.338 C 15.891 57.61 17.814 58.445 19.919 58.656 L 19.919 62.85 C 16.661 62.618 13.698 61.324 11.371 59.305 L 14.338 56.338 Z  M 22.016 58.656 C 24.121 58.447 26.044 57.61 27.598 56.338 L 30.565 59.305 C 28.237 61.324 25.273 62.618 22.016 62.85 L 22.016 58.656 Z  M 17.887 38.205 C 16.576 38.609 15.375 39.264 14.338 40.112 L 11.368 37.142 C 12.127 36.489 12.96 35.907 13.861 35.409 C 15.118 36.46 16.469 37.392 17.887 38.205 Z  M 18.871 26.21 C 18.871 18.695 24.985 12.581 32.5 12.581 C 40.015 12.581 46.129 18.695 46.129 26.21 C 46.129 33.725 40.015 39.839 32.5 39.839 C 24.985 39.839 18.871 33.725 18.871 26.21 Z  M 9.435 26.21 C 9.435 25.718 9.572 25.237 9.829 24.818 C 12.714 20.13 17.045 16.548 22.035 14.503 C 18.815 17.385 16.774 21.558 16.774 26.21 C 16.774 30.861 18.815 35.034 22.036 37.916 C 17.046 35.873 12.715 32.29 9.83 27.602 C 9.572 27.183 9.435 26.701 9.435 26.21 Z  M 9.879 38.619 L 12.855 41.595 C 11.584 43.148 10.747 45.071 10.537 47.176 L 6.327 47.176 C 6.553 43.959 7.822 40.979 9.879 38.619 Z  M 35.58 47.177 L 31.386 47.177 C 31.188 45.196 30.438 43.348 29.235 41.808 C 30.061 41.883 30.892 41.935 31.728 41.935 L 33.272 41.935 C 33.577 41.935 33.881 41.916 34.185 41.905 C 34.975 43.558 35.448 45.349 35.58 47.177 Z  M 16.774 6.29 L 2.097 6.29 L 2.097 4.194 L 16.774 4.194 L 16.774 6.29 Z  M 2.097 8.387 L 16.774 8.387 L 16.774 10.484 L 2.097 10.484 L 2.097 8.387 Z  M 10.484 14.677 L 10.484 12.581 L 12.581 12.581 L 12.581 14.677 L 10.484 14.677 Z  M 2.097 12.581 L 8.387 12.581 L 8.387 14.677 L 2.097 14.677 L 2.097 12.581 Z " fill="url(#_lgradient_0)"/></svg>