<?xml version="1.0" encoding="UTF-8" standalone="no"?><!-- Generator: Gravit.io --><svg xmlns="http://www.w3.org/2000/svg" xmlns:xlink="http://www.w3.org/1999/xlink" style="isolation:isolate" viewBox="97 0 65 64.998" width="65pt" height="64.998pt"><linearGradient id="_lgradient_1" x1="0.5000159943338072" y1="1.0000000000000004" x2="0.5000159943338073" y2="0" gradientTransform="matrix(65,0,0,64.998,97,0)" gradientUnits="userSpaceOnUse"><stop offset="0%" stop-opacity="1" style="stop-color:rgb(255,153,0)"/><stop offset="97.82608695652173%" stop-opacity="1" style="stop-color:rgb(255,0,255)"/></linearGradient><path d=" M 101.21 26.989 L 99.715 29.402 L 105.338 35.024 L 107.752 33.531 C 108.859 34.145 110.029 34.63 111.245 34.978 L 111.895 37.741 L 120.048 37.741 L 120.042 39.739 L 120.042 39.744 L 119.991 56.513 C 119.984 58.944 122.293 61.143 126.492 62.705 C 130.363 64.145 135.491 64.947 140.932 64.963 L 141.092 64.963 C 151.208 64.963 161.908 62.058 161.925 56.639 L 161.95 48.258 C 161.95 48.256 161.95 48.255 161.95 48.253 L 162 31.479 C 162.007 29.048 159.699 26.848 155.499 25.286 C 151.629 23.847 146.5 23.045 141.059 23.029 C 137.952 23.014 134.782 23.281 131.877 23.81 C 131.909 23.705 131.948 23.602 131.978 23.496 L 134.741 22.846 L 134.741 14.895 L 131.978 14.245 C 131.63 13.03 131.145 11.86 130.531 10.752 L 132.025 8.339 L 126.403 2.716 L 123.989 4.21 C 122.882 3.596 121.712 3.11 120.496 2.762 L 119.846 0 L 111.895 0 L 111.245 2.761 C 110.029 3.11 108.859 3.595 107.752 4.209 L 105.338 2.716 L 99.715 8.339 L 101.21 10.752 C 100.596 11.86 100.11 13.03 99.762 14.245 L 97 14.895 L 97 22.846 L 99.762 23.496 C 100.11 24.711 100.596 25.882 101.21 26.989 Z  M 159.879 39.859 C 159.87 42.82 152.189 46.093 141.16 46.093 C 141.103 46.093 141.048 46.093 140.991 46.093 C 129.873 46.059 122.135 42.722 122.14 39.747 L 122.153 35.117 C 123.235 36.027 124.704 36.851 126.569 37.545 C 130.44 38.984 135.569 39.786 141.01 39.802 L 141.169 39.802 C 148.572 39.802 156.28 38.245 159.893 35.288 L 159.879 39.859 Z  M 159.868 43.675 L 159.854 48.248 C 159.841 51.208 152.161 54.48 141.134 54.48 C 141.077 54.48 141.021 54.48 140.965 54.48 C 135.765 54.464 130.894 53.709 127.249 52.354 C 124.03 51.156 122.11 49.579 122.114 48.133 L 122.128 43.562 C 125.749 46.563 133.533 48.168 140.985 48.191 L 141.144 48.191 C 148.546 48.19 156.255 46.633 159.868 43.675 Z  M 141.107 62.867 C 141.051 62.867 140.995 62.867 140.939 62.867 C 135.739 62.851 130.868 62.096 127.223 60.741 C 124.003 59.543 122.084 57.966 122.088 56.52 L 122.102 51.89 C 123.184 52.8 124.652 53.625 126.517 54.319 C 130.388 55.759 135.516 56.561 140.957 56.578 L 141.117 56.578 C 148.519 56.578 156.228 55.021 159.841 52.063 L 159.828 56.634 C 159.819 59.594 152.138 62.867 141.107 62.867 Z  M 141.053 25.126 C 146.253 25.142 151.123 25.896 154.768 27.252 C 157.988 28.449 159.907 30.027 159.903 31.473 C 159.894 34.433 152.214 37.706 141.184 37.706 C 141.127 37.706 141.072 37.706 141.015 37.706 C 135.815 37.69 130.945 36.936 127.298 35.58 C 124.079 34.383 122.159 32.805 122.164 31.359 C 122.173 28.399 129.854 25.126 140.884 25.126 L 141.053 25.126 Z  M 115.87 29.354 C 110.09 29.354 105.387 24.651 105.387 18.87 C 105.387 13.09 110.09 8.387 115.87 8.387 C 121.651 8.387 126.354 13.09 126.354 18.87 C 126.354 24.651 121.651 29.354 115.87 29.354 Z  M 99.097 16.556 L 101.48 15.995 L 101.633 15.371 C 101.985 13.929 102.556 12.552 103.328 11.278 L 103.661 10.729 L 102.373 8.647 L 105.647 5.373 L 107.729 6.661 L 108.277 6.328 C 109.55 5.555 110.926 4.985 112.37 4.631 L 112.994 4.478 L 113.556 2.097 L 118.185 2.097 L 118.746 4.479 L 119.37 4.632 C 120.813 4.985 122.19 5.556 123.463 6.329 L 124.011 6.662 L 126.093 5.374 L 129.367 8.648 L 128.078 10.73 L 128.412 11.279 C 129.183 12.553 129.755 13.929 130.107 15.372 L 130.26 15.996 L 132.644 16.556 L 132.644 21.185 L 130.261 21.746 L 130.108 22.371 C 129.946 23.037 129.721 23.691 129.465 24.329 C 128.519 24.565 127.613 24.831 126.768 25.13 C 127.832 23.284 128.451 21.149 128.451 18.87 C 128.451 11.933 122.807 6.29 115.87 6.29 C 108.933 6.29 103.29 11.933 103.29 18.87 C 103.29 25.807 108.933 31.451 115.87 31.451 C 117.367 31.451 118.797 31.174 120.13 30.693 C 120.093 30.909 120.067 31.128 120.067 31.353 L 120.054 35.644 L 113.556 35.644 L 112.995 33.262 L 112.371 33.109 C 110.927 32.756 109.551 32.184 108.278 31.412 L 107.73 31.078 L 105.648 32.367 L 102.374 29.093 L 103.662 27.011 L 103.329 26.461 C 102.557 25.188 101.986 23.811 101.634 22.369 L 101.481 21.745 L 99.097 21.185 L 99.097 16.556 Z  M 115.87 12.58 C 112.401 12.58 109.58 15.401 109.58 18.87 C 109.58 22.339 112.401 25.16 115.87 25.16 C 119.339 25.16 122.16 22.339 122.16 18.87 C 122.16 15.401 119.339 12.58 115.87 12.58 Z  M 115.87 23.064 C 113.558 23.064 111.677 21.183 111.677 18.87 C 111.677 16.558 113.558 14.677 115.87 14.677 C 118.183 14.677 120.064 16.558 120.064 18.87 C 120.064 21.183 118.183 23.064 115.87 23.064 Z  M 155.037 39.891 L 155.688 41.884 C 155.017 42.103 154.325 42.305 153.613 42.49 L 153.087 40.461 C 153.757 40.287 154.408 40.097 155.037 39.891 Z  M 151.098 40.918 L 151.515 42.973 C 150.823 43.114 150.119 43.239 149.403 43.35 L 149.081 41.278 C 149.765 41.172 150.439 41.052 151.098 40.918 Z  M 147.047 41.551 L 147.281 43.635 C 146.58 43.713 145.869 43.779 145.155 43.833 L 145 41.742 C 145.687 41.691 146.371 41.627 147.047 41.551 Z  M 155.087 56.665 L 155.738 58.657 C 155.067 58.877 154.375 59.079 153.663 59.263 L 153.137 57.234 C 153.807 57.061 154.458 56.871 155.087 56.665 Z  M 151.147 57.692 L 151.565 59.747 C 150.873 59.887 150.168 60.013 149.452 60.124 L 149.13 58.051 C 149.815 57.946 150.488 57.826 151.147 57.692 Z  M 147.098 58.325 L 147.331 60.408 C 146.63 60.487 145.919 60.553 145.205 60.606 L 145.05 58.516 C 145.737 58.465 146.421 58.401 147.098 58.325 Z  M 130.736 49.367 C 131.396 49.497 132.07 49.612 132.754 49.715 L 132.445 51.789 C 131.728 51.682 131.022 51.56 130.33 51.424 L 130.736 49.367 Z  M 126.79 48.364 C 127.421 48.566 128.073 48.752 128.743 48.921 L 128.229 50.953 C 127.515 50.773 126.822 50.575 126.152 50.361 L 126.79 48.364 Z  M 134.791 49.975 C 135.468 50.047 136.152 50.106 136.838 50.153 L 136.697 52.245 C 135.981 52.196 135.271 52.135 134.568 52.059 L 134.791 49.975 Z  M 141.023 35.641 L 141.207 35.641 C 144.856 35.641 148.293 35.314 150.9 34.717 C 154.134 33.977 155.709 32.916 155.713 31.475 C 155.726 27.384 142.55 27.226 141.049 27.222 C 137.378 27.23 133.823 27.538 131.172 28.144 C 127.938 28.884 126.363 29.945 126.359 31.387 C 126.347 35.478 139.522 35.637 141.023 35.641 Z  M 141.042 29.319 C 148.327 29.341 152.829 30.659 153.562 31.469 C 152.831 32.268 148.39 33.544 141.212 33.544 C 141.151 33.544 141.091 33.544 141.03 33.544 C 133.746 33.522 129.243 32.203 128.51 31.394 C 129.247 30.589 133.78 29.307 141.042 29.319 Z  M 159.901 12.58 L 159.901 10.484 L 161.998 10.484 L 161.998 12.58 L 159.901 12.58 Z  M 144.61 20.967 L 136.837 20.967 L 136.837 18.87 L 143.742 18.87 L 152.129 10.484 L 157.804 10.484 L 157.804 12.58 L 152.997 12.58 L 144.61 20.967 Z  M 142.513 16.774 L 136.837 16.774 L 136.837 14.677 L 141.645 14.677 L 150.032 6.29 L 161.998 6.29 L 161.998 8.387 L 150.9 8.387 L 142.513 16.774 Z  M 107.484 62.901 L 109.58 62.901 L 109.58 64.998 L 107.484 64.998 L 107.484 62.901 Z  M 109.58 60.804 L 107.484 60.804 L 107.484 55.129 L 115.87 46.742 L 115.87 39.837 L 117.967 39.837 L 117.967 47.61 L 109.58 55.997 L 109.58 60.804 Z  M 111.677 39.837 L 113.774 39.837 L 113.774 45.513 L 105.387 53.9 L 105.387 64.998 L 103.29 64.998 L 103.29 53.032 L 111.677 44.645 L 111.677 39.837 Z " fill="url(#_lgradient_1)"/></svg>