<?xml version="1.0" encoding="UTF-8" standalone="no"?><!-- Generator: Gravit.io --><svg xmlns="http://www.w3.org/2000/svg" xmlns:xlink="http://www.w3.org/1999/xlink" style="isolation:isolate" viewBox="191 0 65 65" width="65pt" height="65pt"><linearGradient id="_lgradient_2" x1="0.49999999999999994" y1="1.0000000000000002" x2="0.5" y2="0" gradientTransform="matrix(65,0,0,65,191,0)" gradientUnits="userSpaceOnUse"><stop offset="0%" stop-opacity="1" style="stop-color:rgb(255,153,0)"/><stop offset="98.69565217391305%" stop-opacity="1" style="stop-color:rgb(255,0,255)"/></linearGradient><path d=" M 202.425 11.597 L 211.508 12.202 C 214.305 12.389 216.819 14.063 218.067 16.571 C 218.452 17.342 219.208 17.823 220.041 17.823 L 220.269 17.823 C 221.472 17.823 222.452 16.843 222.452 15.64 L 222.452 9.923 L 221.985 9.612 C 221.846 9.519 218.524 7.339 214.065 7.339 L 202.567 7.339 C 201.392 7.339 200.435 8.295 200.435 9.47 C 200.435 10.589 201.309 11.523 202.425 11.597 Z  M 214.065 9.435 C 216.981 9.435 219.381 10.554 220.355 11.084 L 220.355 15.64 C 220.355 15.687 220.316 15.726 220.269 15.726 L 220.041 15.726 C 220.011 15.726 219.971 15.688 219.945 15.637 C 218.365 12.464 215.185 10.348 211.647 10.111 L 202.567 9.435 L 214.065 9.435 Z  M 207.418 55.81 L 212.341 57.685 L 211.595 59.645 L 206.671 57.769 C 199.806 55.155 195.194 48.461 195.194 41.115 L 195.194 40.887 L 197.29 40.887 L 197.29 41.115 C 197.29 47.597 201.36 53.502 207.418 55.81 Z  M 197.29 38.79 L 195.194 38.79 L 195.194 36.694 L 197.29 36.694 L 197.29 38.79 Z  M 211.968 15.726 L 203.581 15.726 L 203.581 16.774 C 203.581 21.399 207.343 25.161 211.968 25.161 L 220.355 25.161 L 220.355 24.113 C 220.355 19.488 216.592 15.726 211.968 15.726 Z  M 211.968 23.065 C 208.856 23.065 206.266 20.794 205.764 17.823 L 211.968 17.823 C 215.079 17.823 217.67 20.093 218.171 23.065 L 211.968 23.065 Z  M 250.758 12.581 L 245.516 12.581 L 245.516 11.759 L 242.587 11.038 C 242.458 10.689 242.312 10.341 242.15 9.995 L 243.715 7.41 L 238.104 1.8 L 235.52 3.365 C 235.174 3.204 234.826 3.058 234.477 2.929 L 233.757 0 L 225.824 0 L 225.104 2.929 C 224.577 3.124 224.05 3.358 223.538 3.623 L 223.297 3.745 C 222.351 2.739 221.234 1.888 219.962 1.253 C 218.323 0.433 216.488 0 214.657 0 L 198.339 0 L 198.339 1.048 C 198.339 4.518 195.517 7.339 192.048 7.339 L 191 7.339 L 191 41.115 C 191 50.189 196.698 58.457 205.178 61.689 L 212.321 64.41 C 213.351 64.802 214.43 65 215.531 65 C 217.725 65 219.737 64.211 221.303 62.903 L 243.419 62.903 L 243.419 61.855 C 243.419 58.964 241.068 56.613 238.177 56.613 L 237.129 56.613 L 237.129 52.419 L 250.758 52.419 C 253.648 52.419 256 50.068 256 47.177 L 256 17.823 C 256 14.932 253.648 12.581 250.758 12.581 Z  M 221.403 44.032 L 222.452 44.032 L 222.452 52.419 L 222.352 52.419 C 220.873 52.419 219.543 51.597 218.882 50.275 C 218.307 49.125 217.359 48.177 216.21 47.602 L 213.595 46.295 C 215.316 45.437 216.7 44.009 217.5 42.255 C 218.461 43.336 219.846 44.032 221.403 44.032 Z  M 230.591 31.452 L 233.757 31.452 L 234.478 28.522 C 234.826 28.393 235.174 28.248 235.521 28.085 L 238.106 29.65 L 243.717 24.04 L 242.152 21.454 C 242.313 21.108 242.459 20.76 242.589 20.411 L 245.516 19.693 L 245.516 18.871 L 249.71 18.871 L 249.71 41.935 L 235.556 41.935 L 232.411 46.129 L 224.548 46.129 L 224.548 43.881 C 228.56 43.323 232.935 41.222 232.935 37.742 C 232.935 36.297 231.864 33.852 230.591 31.452 Z  M 226.302 4.733 L 226.863 4.555 L 227.467 2.097 L 232.115 2.097 L 232.718 4.555 L 233.279 4.733 C 233.881 4.924 234.49 5.179 235.09 5.49 L 235.612 5.761 L 237.785 4.445 L 241.071 7.731 L 239.755 9.904 L 240.027 10.427 C 240.337 11.026 240.592 11.635 240.784 12.238 L 240.962 12.799 L 243.419 13.403 L 243.419 18.05 L 240.961 18.654 L 240.783 19.215 C 240.591 19.818 240.337 20.426 240.026 21.025 L 239.754 21.549 L 241.07 23.722 L 237.784 27.008 L 235.611 25.692 L 235.089 25.962 C 234.487 26.274 233.878 26.529 233.278 26.719 L 232.717 26.897 L 232.114 29.355 L 229.428 29.355 C 228.254 27.324 227.122 25.57 226.645 24.846 L 226.645 24.596 C 227.656 24.956 228.716 25.161 229.79 25.161 C 234.992 25.161 239.226 20.928 239.226 15.726 C 239.226 10.524 234.992 6.29 229.79 6.29 C 228.318 6.29 226.89 6.635 225.59 7.285 C 225.319 6.634 224.991 6.017 224.615 5.433 C 225.175 5.15 225.741 4.912 226.302 4.733 Z  M 226.645 19.892 C 227.524 20.558 228.606 20.968 229.79 20.968 C 232.681 20.968 235.032 18.616 235.032 15.726 C 235.032 12.835 232.681 10.484 229.79 10.484 C 228.593 10.484 227.502 10.903 226.619 11.58 C 226.576 10.813 226.464 10.052 226.274 9.307 C 227.351 8.714 228.548 8.387 229.79 8.387 C 233.837 8.387 237.129 11.679 237.129 15.726 C 237.129 19.773 233.837 23.065 229.79 23.065 C 228.703 23.065 227.631 22.803 226.645 22.334 L 226.645 19.892 Z  M 229.79 12.581 C 231.524 12.581 232.935 13.992 232.935 15.726 C 232.935 17.46 231.524 18.871 229.79 18.871 C 228.056 18.871 226.645 17.46 226.645 15.726 C 226.645 13.992 228.056 12.581 229.79 12.581 Z  M 215.531 62.903 C 214.686 62.903 213.858 62.75 213.067 62.449 L 205.925 59.729 C 198.252 56.806 193.097 49.325 193.097 41.115 L 193.097 9.37 C 196.885 8.896 199.896 5.885 200.37 2.097 L 214.657 2.097 C 216.164 2.097 217.675 2.453 219.024 3.127 C 221.241 4.235 222.912 6.107 223.782 8.413 L 223.758 8.43 L 224.054 9.171 C 224.382 10.163 224.548 11.195 224.548 12.239 L 224.548 25.478 L 224.725 25.742 C 227.089 29.289 230.839 35.682 230.839 37.742 C 230.839 40.065 226.251 41.935 222.452 41.935 L 221.403 41.935 C 219.669 41.935 218.258 40.524 218.258 38.79 L 216.161 38.79 C 216.161 42.259 213.34 45.081 209.871 45.081 C 206.402 45.081 203.581 42.259 203.581 38.79 L 203.581 37.742 C 203.581 36.586 204.521 35.645 205.677 35.645 C 206.834 35.645 207.774 36.586 207.774 37.742 L 209.871 37.742 C 209.871 35.429 207.99 33.548 205.677 33.548 C 203.365 33.548 201.484 35.429 201.484 37.742 L 201.484 38.79 C 201.484 43.415 205.247 47.177 209.871 47.177 C 210.116 47.177 210.357 47.162 210.597 47.141 L 215.271 49.478 C 216.018 49.85 216.633 50.466 217.006 51.213 C 218.025 53.25 220.074 54.516 222.352 54.516 L 222.452 54.516 L 222.452 55.983 C 222.452 59.799 219.347 62.903 215.531 62.903 Z  M 241.143 60.806 L 223.136 60.806 C 223.549 60.158 223.887 59.456 224.124 58.71 L 238.177 58.71 C 239.545 58.71 240.71 59.586 241.143 60.806 Z  M 235.032 56.613 L 224.517 56.613 C 224.532 56.404 224.548 56.196 224.548 55.983 L 224.548 52.419 L 235.032 52.419 L 235.032 56.613 Z  M 253.903 47.177 C 253.903 48.911 252.492 50.323 250.758 50.323 L 224.548 50.323 L 224.548 48.226 L 232.411 48.226 C 233.068 48.226 233.696 47.912 234.089 47.387 L 236.605 44.032 L 249.71 44.032 C 250.866 44.032 251.806 43.092 251.806 41.935 L 251.806 18.871 C 251.806 17.715 250.866 16.774 249.71 16.774 L 245.516 16.774 L 245.516 14.677 L 250.758 14.677 C 252.492 14.677 253.903 16.089 253.903 17.823 L 253.903 47.177 Z  M 249.71 46.129 L 251.806 46.129 L 251.806 48.226 L 249.71 48.226 L 249.71 46.129 Z  M 241.323 46.129 L 247.613 46.129 L 247.613 48.226 L 241.323 48.226 L 241.323 46.129 Z  M 237.129 46.129 L 239.226 46.129 L 239.226 48.226 L 237.129 48.226 L 237.129 46.129 Z  M 247.613 39.839 L 245.516 39.839 L 245.516 37.742 L 247.613 37.742 L 247.613 39.839 Z  M 243.419 39.839 L 241.323 39.839 L 241.323 37.742 L 243.419 37.742 L 243.419 39.839 Z  M 239.226 39.839 L 237.129 39.839 L 237.129 37.742 L 239.226 37.742 L 239.226 39.839 Z " fill="url(#_lgradient_2)"/></svg>