<?xml version="1.0" encoding="UTF-8" standalone="no"?><!-- Generator: Gravit.io --><svg xmlns="http://www.w3.org/2000/svg" xmlns:xlink="http://www.w3.org/1999/xlink" style="isolation:isolate" viewBox="395 -0.002 65 65" width="65pt" height="65pt"><linearGradient id="_lgradient_4" x1="0.5000000000000001" y1="1.0000000000000002" x2="0.5000000000000002" y2="0" gradientTransform="matrix(65,0,0,65,395,-0.002)" gradientUnits="userSpaceOnUse"><stop offset="0%" stop-opacity="1" style="stop-color:rgb(255,153,0)"/><stop offset="99.1304347826087%" stop-opacity="1" style="stop-color:rgb(255,0,255)"/></linearGradient><path d=" M 427.5 -0.002 C 416.663 -0.002 406.946 6.714 403.061 16.772 L 395 16.772 L 395 35.643 L 403.061 35.643 C 403.942 37.923 405.112 40.037 406.539 41.933 L 398.145 41.933 C 396.411 41.933 395 43.344 395 45.079 L 395 57.659 C 395 59.393 396.411 60.804 398.145 60.804 L 402.339 60.804 L 402.339 62.901 L 400.242 62.901 L 400.242 64.998 L 414.919 64.998 L 414.919 62.901 L 412.823 62.901 L 412.823 60.804 L 417.016 60.804 C 418.75 60.804 420.161 59.393 420.161 57.659 L 420.161 51.348 C 422.51 52.036 424.971 52.417 427.5 52.417 C 430.029 52.417 432.49 52.036 434.839 51.348 L 434.839 57.659 C 434.839 59.393 436.25 60.804 437.984 60.804 L 442.177 60.804 L 442.177 62.901 L 440.081 62.901 L 440.081 64.998 L 454.758 64.998 L 454.758 62.901 L 452.661 62.901 L 452.661 60.804 L 456.855 60.804 C 458.589 60.804 460 59.393 460 57.659 L 460 45.079 C 460 43.344 458.589 41.933 456.855 41.933 L 448.463 41.933 C 449.889 40.037 451.058 37.923 451.939 35.643 L 460 35.643 L 460 16.772 L 451.939 16.772 C 448.054 6.714 438.337 -0.002 427.5 -0.002 Z  M 445.323 16.772 L 445.323 25.159 L 441.108 25.159 C 441.01 21.099 440.352 17.624 439.374 14.675 L 448.681 14.675 C 449.05 15.352 449.379 16.055 449.684 16.772 L 445.323 16.772 Z  M 427.517 50.158 C 426.046 49.28 421.655 46.241 418.738 39.837 L 436.296 39.837 C 433.378 46.242 428.986 49.282 427.517 50.158 Z  M 438.584 39.837 L 447.377 39.837 C 443.649 45.26 437.823 48.989 431.254 50.026 C 433.525 48.099 436.495 44.838 438.584 39.837 Z  M 423.787 50.03 C 417.202 49.002 411.36 45.271 407.624 39.837 L 416.451 39.837 C 418.542 44.843 421.514 48.104 423.787 50.03 Z  M 417.887 37.74 C 416.845 34.849 416.129 31.379 416.022 27.256 L 420.161 27.256 L 420.161 35.643 L 434.839 35.643 L 434.839 27.256 L 439.011 27.256 C 438.905 31.379 438.188 34.849 437.146 37.74 L 417.887 37.74 Z  M 422.258 33.546 L 422.258 18.869 L 432.742 18.869 L 432.742 33.546 L 422.258 33.546 Z  M 434.839 25.159 L 434.839 16.772 L 420.161 16.772 L 420.161 25.159 L 416.023 25.159 C 416.128 21.036 416.841 17.566 417.877 14.675 L 437.158 14.675 C 438.194 17.566 438.906 21.036 439.011 25.159 L 434.839 25.159 Z  M 427.518 2.217 C 428.916 3.047 433.371 6.084 436.312 12.579 L 418.723 12.579 C 421.665 6.084 426.118 3.047 427.518 2.217 Z  M 447.376 12.579 L 438.596 12.579 C 436.523 7.587 433.576 4.33 431.319 2.402 C 437.861 3.453 443.661 7.173 447.376 12.579 Z  M 423.726 2.392 C 421.467 4.319 418.514 7.579 416.437 12.579 L 407.624 12.579 C 411.349 7.16 417.166 3.434 423.726 2.392 Z  M 406.319 14.675 L 415.661 14.675 C 414.682 17.624 414.025 21.099 413.927 25.159 L 409.677 25.159 L 409.677 16.772 L 405.316 16.772 C 405.621 16.055 405.95 15.352 406.319 14.675 Z  M 397.097 18.869 L 407.581 18.869 L 407.581 33.546 L 397.097 33.546 L 397.097 18.869 Z  M 409.677 35.643 L 409.677 27.256 L 413.927 27.256 C 414.025 31.316 414.687 34.791 415.67 37.74 L 406.319 37.74 C 405.95 37.064 405.621 36.36 405.316 35.643 L 409.677 35.643 Z  M 410.726 62.901 L 404.435 62.901 L 404.435 60.804 L 410.726 60.804 L 410.726 62.901 Z  M 417.016 58.708 L 398.145 58.708 C 397.568 58.708 397.097 58.238 397.097 57.659 L 397.097 56.611 L 418.065 56.611 L 418.065 57.659 C 418.065 58.238 417.594 58.708 417.016 58.708 Z  M 418.065 54.514 L 397.097 54.514 L 397.097 45.079 C 397.097 44.5 397.568 44.03 398.145 44.03 L 408.306 44.03 C 411.014 46.938 414.351 49.203 418.065 50.64 L 418.065 54.514 Z  M 450.565 62.901 L 444.274 62.901 L 444.274 60.804 L 450.565 60.804 L 450.565 62.901 Z  M 456.855 58.708 L 437.984 58.708 C 437.406 58.708 436.935 58.238 436.935 57.659 L 436.935 56.611 L 457.903 56.611 L 457.903 57.659 C 457.903 58.238 457.433 58.708 456.855 58.708 Z  M 456.855 44.03 C 457.433 44.03 457.903 44.5 457.903 45.079 L 457.903 54.514 L 436.935 54.514 L 436.935 50.64 C 440.649 49.203 443.987 46.938 446.695 44.03 L 456.855 44.03 Z  M 448.682 37.74 L 439.365 37.74 C 440.348 34.791 441.008 31.316 441.108 27.256 L 445.323 27.256 L 445.323 35.643 L 449.684 35.643 C 449.379 36.36 449.05 37.064 448.682 37.74 Z  M 457.903 33.546 L 447.419 33.546 L 447.419 18.869 L 457.903 18.869 L 457.903 33.546 Z  M 455.806 23.062 L 449.516 23.062 L 449.516 20.966 L 455.806 20.966 L 455.806 23.062 Z  M 455.806 27.256 L 449.516 27.256 L 449.516 25.159 L 455.806 25.159 L 455.806 27.256 Z  M 455.806 31.449 L 449.516 31.449 L 449.516 29.353 L 455.806 29.353 L 455.806 31.449 Z  M 426.452 23.062 L 424.355 23.062 L 424.355 20.966 L 426.452 20.966 L 426.452 23.062 Z  M 428.548 20.966 L 430.645 20.966 L 430.645 23.062 L 428.548 23.062 L 428.548 20.966 Z  M 424.355 25.159 L 430.645 25.159 L 430.645 27.256 L 424.355 27.256 L 424.355 25.159 Z  M 424.355 29.353 L 430.645 29.353 L 430.645 31.449 L 424.355 31.449 L 424.355 29.353 Z  M 399.194 20.966 L 405.484 20.966 L 405.484 23.062 L 399.194 23.062 L 399.194 20.966 Z  M 399.194 25.159 L 405.484 25.159 L 405.484 27.256 L 399.194 27.256 L 399.194 25.159 Z  M 399.194 29.353 L 405.484 29.353 L 405.484 31.449 L 399.194 31.449 L 399.194 29.353 Z  M 422.258 44.03 L 422.258 41.933 L 424.355 41.933 L 424.355 44.03 L 422.258 44.03 Z  M 428.548 44.03 L 426.452 44.03 L 426.452 41.933 L 428.548 41.933 L 428.548 44.03 Z  M 432.742 44.03 L 430.645 44.03 L 430.645 41.933 L 432.742 41.933 L 432.742 44.03 Z  M 422.258 10.482 L 422.258 8.385 L 424.355 8.385 L 424.355 10.482 L 422.258 10.482 Z  M 428.548 10.482 L 426.452 10.482 L 426.452 8.385 L 428.548 8.385 L 428.548 10.482 Z  M 432.742 10.482 L 430.645 10.482 L 430.645 8.385 L 432.742 8.385 L 432.742 10.482 Z " fill="url(#_lgradient_4)"/></svg>