<?xml version="1.0" encoding="UTF-8" standalone="no"?><!-- Generator: Gravit.io --><svg xmlns="http://www.w3.org/2000/svg" xmlns:xlink="http://www.w3.org/1999/xlink" style="isolation:isolate" viewBox="500 0 65 65" width="65pt" height="65pt"><linearGradient id="_lgradient_5" x1="0.5000000000000001" y1="1.0000000000000002" x2="0.5000000000000002" y2="0" gradientTransform="matrix(65,0,0,65,500,0)" gradientUnits="userSpaceOnUse"><stop offset="0%" stop-opacity="1" style="stop-color:rgb(255,153,0)"/><stop offset="98.26086956521739%" stop-opacity="1" style="stop-color:rgb(255,0,255)"/></linearGradient><path d=" M 559.064 15.726 L 550.057 25.858 L 548.491 24.465 L 556.259 15.726 L 548.491 6.987 L 550.057 5.594 L 559.064 15.726 Z  M 540.104 5.593 L 531.097 15.726 L 540.104 25.858 L 541.67 24.465 L 533.903 15.726 L 541.67 6.987 L 540.104 5.593 Z  M 542.988 27.164 L 545.076 27.353 L 547.173 4.289 L 545.085 4.099 L 542.988 27.164 Z  M 521.233 40.535 L 529 49.274 L 521.233 58.014 L 522.799 59.406 L 531.806 49.274 L 522.799 39.143 L 521.233 40.535 Z  M 512.846 39.143 L 503.839 49.274 L 512.846 59.406 L 514.412 58.014 L 506.645 49.274 L 514.412 40.535 L 512.846 39.143 Z  M 515.73 60.711 L 517.818 60.902 L 519.915 37.837 L 517.827 37.647 L 515.73 60.711 Z  M 506.29 20.968 L 504.194 20.968 L 504.194 23.065 L 506.29 23.065 L 506.29 20.968 Z  M 510.484 20.968 L 508.387 20.968 L 508.387 23.065 L 510.484 23.065 L 510.484 20.968 Z  M 514.677 20.968 L 512.581 20.968 L 512.581 23.065 L 514.677 23.065 L 514.677 20.968 Z  M 523.065 29.355 L 520.968 29.355 L 520.968 31.452 L 523.065 31.452 L 523.065 29.355 Z  M 518.871 29.355 L 516.774 29.355 L 516.774 31.452 L 518.871 31.452 L 518.871 29.355 Z  M 504.194 31.452 L 514.677 31.452 L 514.677 29.355 L 504.194 29.355 L 504.194 31.452 Z  M 541.935 48.226 L 544.032 48.226 L 544.032 39.839 L 541.935 39.839 L 541.935 48.226 Z  M 554.516 48.226 L 556.613 48.226 L 556.613 39.839 L 554.516 39.839 L 554.516 48.226 Z  M 537.742 48.226 L 535.645 48.226 C 534.489 48.226 533.548 47.285 533.548 46.129 L 533.548 41.935 C 533.548 40.779 534.489 39.839 535.645 39.839 L 537.742 39.839 C 538.898 39.839 539.839 40.779 539.839 41.935 L 539.839 46.129 C 539.839 47.285 538.898 48.226 537.742 48.226 Z  M 535.645 46.129 L 537.744 46.129 L 537.742 41.935 L 535.645 41.935 L 535.645 46.129 Z  M 550.323 48.226 L 548.226 48.226 C 547.069 48.226 546.129 47.285 546.129 46.129 L 546.129 41.935 C 546.129 40.779 547.069 39.839 548.226 39.839 L 550.323 39.839 C 551.479 39.839 552.419 40.779 552.419 41.935 L 552.419 46.129 C 552.419 47.285 551.479 48.226 550.323 48.226 Z  M 548.226 46.129 L 550.325 46.129 L 550.323 41.935 L 548.226 41.935 L 548.226 46.129 Z  M 533.548 58.71 L 535.645 58.71 L 535.645 50.323 L 533.548 50.323 L 533.548 58.71 Z  M 544.032 52.419 L 544.032 56.613 C 544.032 57.769 543.092 58.71 541.935 58.71 L 539.839 58.71 C 538.682 58.71 537.742 57.769 537.742 56.613 L 537.742 52.419 C 537.742 51.263 538.682 50.323 539.839 50.323 L 541.935 50.323 C 543.092 50.323 544.032 51.263 544.032 52.419 Z  M 541.935 52.419 L 539.839 52.419 L 539.839 56.613 L 541.935 56.613 L 541.935 52.419 Z  M 546.129 58.71 L 548.226 58.71 L 548.226 50.323 L 546.129 50.323 L 546.129 58.71 Z  M 556.613 52.419 L 556.613 56.613 C 556.613 57.769 555.673 58.71 554.516 58.71 L 552.419 58.71 C 551.263 58.71 550.323 57.769 550.323 56.613 L 550.323 52.419 C 550.323 51.263 551.263 50.323 552.419 50.323 L 554.516 50.323 C 555.673 50.323 556.613 51.263 556.613 52.419 Z  M 554.516 52.419 L 552.419 52.419 L 552.419 56.613 L 554.516 56.613 L 554.516 52.419 Z  M 565 5.242 L 565 26.21 C 565 28.74 563.196 30.858 560.806 31.346 L 560.806 65 L 500 65 L 500 16.774 L 525.161 16.774 L 525.161 5.242 C 525.161 2.352 527.513 0 530.403 0 L 559.758 0 C 562.648 0 565 2.352 565 5.242 Z  M 502.097 18.871 L 502.097 25.161 L 525.161 25.161 L 525.161 18.871 L 502.097 18.871 Z  M 558.71 62.903 L 558.71 31.452 L 530.403 31.452 C 527.872 31.452 525.755 29.647 525.267 27.258 L 502.097 27.258 L 502.097 62.903 L 558.71 62.903 Z  M 562.903 5.242 C 562.903 3.508 561.492 2.097 559.758 2.097 L 530.403 2.097 C 528.669 2.097 527.258 3.508 527.258 5.242 L 527.258 26.21 C 527.258 27.944 528.669 29.355 530.403 29.355 L 559.758 29.355 C 561.492 29.355 562.903 27.944 562.903 26.21 L 562.903 5.242 Z  M 559.758 25.161 C 559.179 25.161 558.71 25.631 558.71 26.21 C 558.71 26.788 559.179 27.258 559.758 27.258 C 560.337 27.258 560.806 26.788 560.806 26.21 C 560.806 25.631 560.337 25.161 559.758 25.161 Z  M 559.758 4.194 C 559.179 4.194 558.71 4.663 558.71 5.242 C 558.71 5.821 559.179 6.29 559.758 6.29 C 560.337 6.29 560.806 5.821 560.806 5.242 C 560.806 4.663 560.337 4.194 559.758 4.194 Z  M 530.403 25.161 C 529.825 25.161 529.355 25.631 529.355 26.21 C 529.355 26.788 529.825 27.258 530.403 27.258 C 530.982 27.258 531.452 26.788 531.452 26.21 C 531.452 25.631 530.982 25.161 530.403 25.161 Z  M 530.403 6.29 C 530.982 6.29 531.452 5.821 531.452 5.242 C 531.452 4.663 530.982 4.194 530.403 4.194 C 529.825 4.194 529.355 4.663 529.355 5.242 C 529.355 5.821 529.825 6.29 530.403 6.29 Z " fill="url(#_lgradient_5)"/></svg>