<?xml version="1.0" encoding="UTF-8" standalone="no"?><!-- Generator: Gravit.io --><svg xmlns="http://www.w3.org/2000/svg" xmlns:xlink="http://www.w3.org/1999/xlink" style="isolation:isolate" viewBox="486 30 118.075 108.629" width="118.075pt" height="108.629pt"><linearGradient id="_lgradient_23" x1="0" y1="0.5" x2="1" y2="0.5" gradientTransform="matrix(118.075,0,0,108.629,486,30)" gradientUnits="userSpaceOnUse"><stop offset="0%" stop-opacity="1" style="stop-color:rgb(255,153,0)"/><stop offset="100%" stop-opacity="1" style="stop-color:rgb(255,0,0)"/></linearGradient><path d=" M 501.144 41.808 L 588.931 41.808 C 593.379 41.808 596.991 44.982 596.991 48.892 L 596.991 48.892 C 596.991 52.802 593.379 55.977 588.931 55.977 L 501.144 55.977 C 496.696 55.977 493.085 52.802 493.085 48.892 L 493.085 48.892 C 493.085 44.982 496.696 41.808 501.144 41.808 L 501.144 41.808 L 501.144 41.808 L 501.144 41.808 Z  M 501.144 65.423 L 588.931 65.423 C 593.379 65.423 596.991 68.597 596.991 72.507 L 596.991 72.507 C 596.991 76.417 593.379 79.592 588.931 79.592 L 501.144 79.592 C 496.696 79.592 493.085 76.417 493.085 72.507 L 493.085 72.507 C 493.085 68.597 496.696 65.423 501.144 65.423 L 501.144 65.423 L 501.144 65.423 Z  M 501.144 89.038 L 588.931 89.038 C 593.379 89.038 596.991 92.212 596.991 96.122 L 596.991 96.122 C 596.991 100.032 593.379 103.207 588.931 103.207 L 501.144 103.207 C 496.696 103.207 493.085 100.032 493.085 96.122 L 493.085 96.122 C 493.085 92.212 496.696 89.038 501.144 89.038 L 501.144 89.038 Z  M 497.949 30 L 592.126 30 C 598.721 30 604.075 35.354 604.075 41.949 L 604.075 126.68 C 604.075 133.275 598.721 138.629 592.126 138.629 L 497.949 138.629 C 491.354 138.629 486 133.275 486 126.68 L 486 41.949 C 486 35.354 491.354 30 497.949 30 L 497.949 30 L 497.949 30 L 497.949 30 Z  M 501.144 112.653 L 588.931 112.653 C 593.379 112.653 596.991 115.827 596.991 119.737 L 596.991 119.737 C 596.991 123.647 593.379 126.822 588.931 126.822 L 501.144 126.822 C 496.696 126.822 493.085 123.647 493.085 119.737 L 493.085 119.737 C 493.085 115.827 496.696 112.653 501.144 112.653 Z " fill-rule="evenodd" fill="url(#_lgradient_23)"/></svg>