<?xml version="1.0" encoding="UTF-8" standalone="no"?><!-- Generator: Gravit.io --><svg xmlns="http://www.w3.org/2000/svg" xmlns:xlink="http://www.w3.org/1999/xlink" style="isolation:isolate" viewBox="29.014 29.5 414.486 104" width="414.486pt" height="104pt"><g><g><defs><linearGradient id="_lgradient_21" x1="0" y1="0.5" x2="0.8095962309728805" y2="0.4943657928045205"><stop offset="0%" style="stop-color:#FF00FF"/><stop offset="98.69565217391305%" style="stop-color:#FF0000"/></linearGradient></defs><path d="M 81.014 30 L 391.5 30 C 419.924 30 443 53.076 443 81.5 L 443 81.5 C 443 109.924 419.924 133 391.5 133 L 81.014 133 C 52.591 133 29.514 109.924 29.514 81.5 L 29.514 81.5 C 29.514 53.076 52.591 30 81.014 30 Z" style="stroke:none;fill:url(#_lgradient_21);stroke-miterlimit:10;"/><path d="M 81.014 30 L 391.5 30 C 419.924 30 443 53.076 443 81.5 L 443 81.5 C 443 109.924 419.924 133 391.5 133 L 81.014 133 C 52.591 133 29.514 109.924 29.514 81.5 L 29.514 81.5 C 29.514 53.076 52.591 30 81.014 30 Z" style="fill:none;stroke:#FFFFFF;stroke-width:1;stroke-linecap:square;stroke-miterlimit:2;"/><text transform="matrix(1,0,0,1,113.257,108.777)" style="font-family:'Jokerman';font-weight:400;font-size:65px;font-style:normal;fill:#ffffff;stroke:none;">Zandari</text></g><path d=" M 408.442 72.558 L 408.442 56.499 C 408.442 55.12 407.322 54 405.943 54 L 372.499 54 C 371.12 54 370 55.12 370 56.499 L 370 89.943 C 370 91.322 371.12 92.442 372.499 92.442 L 389.884 92.442 L 389.884 107.54 C 389.884 109.45 391.434 111 393.343 111 L 424.866 111 C 426.775 111 428.326 109.45 428.326 107.54 L 428.326 76.018 C 428.326 74.108 426.775 72.558 424.866 72.558 L 408.442 72.558 Z  M 408.442 72.558 L 408.442 89.943 C 408.442 91.322 407.322 92.442 405.943 92.442 L 389.884 92.442 L 389.884 76.018 C 389.884 74.108 391.434 72.558 393.343 72.558 L 408.442 72.558 L 408.442 72.558 Z " fill-rule="evenodd" fill="rgb(23,23,23)"/><path d=" M 84.442 71.558 L 84.442 55.499 C 84.442 54.12 83.322 53 81.943 53 L 48.499 53 C 47.12 53 46 54.12 46 55.499 L 46 88.943 C 46 90.322 47.12 91.442 48.499 91.442 L 65.884 91.442 L 65.884 106.54 C 65.884 108.45 67.434 110 69.343 110 L 100.866 110 C 102.775 110 104.326 108.45 104.326 106.54 L 104.326 75.018 C 104.326 73.108 102.775 71.558 100.866 71.558 L 84.442 71.558 Z  M 84.442 71.558 L 84.442 88.943 C 84.442 90.322 83.322 91.442 81.943 91.442 L 65.884 91.442 L 65.884 75.018 C 65.884 73.108 67.434 71.558 69.343 71.558 L 84.442 71.558 L 84.442 71.558 Z " fill-rule="evenodd" fill="rgb(23,23,23)"/></g></svg>